<svg width="64" height="64" viewBox="0 0 64 64" fill="none" xmlns="http://www.w3.org/2000/svg">
<g clip-path="url(#clip0_24_35750)">
<path d="M0 42.6625H64V64H0V42.6625Z" fill="#1EB53A"/>
<path d="M0 0H64V21.3375H0V0Z" fill="#0099B5"/>
<path d="M0 20.475H64V43.525H0V20.475Z" fill="#CE1126"/>
<path d="M0 21.75H64V42.25H0V21.75Z" fill="white"/>
<path d="M17.925 17.9125C22.1638 17.9125 25.6 14.4763 25.6 10.2375C25.6 5.99871 22.1638 2.5625 17.925 2.5625C13.6862 2.5625 10.25 5.99871 10.25 10.2375C10.25 14.4763 13.6862 17.9125 17.925 17.9125Z" fill="white"/>
<path d="M20.4748 17.9125C24.7136 17.9125 28.1498 14.4763 28.1498 10.2375C28.1498 5.99871 24.7136 2.5625 20.4748 2.5625C16.236 2.5625 12.7998 5.99871 12.7998 10.2375C12.7998 14.4763 16.236 17.9125 20.4748 17.9125Z" fill="#0099B5"/>
<path d="M34.8126 14.839L34.3262 16.2982L35.0686 16.5542" fill="white"/>
<path d="M34.8124 14.839L35.2988 16.2982L34.5564 16.5542" fill="white"/>
<path d="M36.2734 15.9003L34.7353 15.8887L34.7212 16.6738" fill="white"/>
<path d="M36.2735 15.9004L35.036 16.8139L34.5632 16.1869" fill="white"/>
<path d="M33.3515 15.9004L34.589 16.8139L35.0618 16.1869" fill="white"/>
<path d="M33.3516 15.9003L34.8897 15.8887L34.9038 16.6738" fill="white"/>
<path d="M35.7149 17.6176L35.2507 16.1512L34.4996 16.3805" fill="white"/>
<path d="M35.7148 17.6176L34.4636 16.723L34.9137 16.0795" fill="white"/>
<path d="M33.9092 17.6176L35.1604 16.723L34.7103 16.0795" fill="white"/>
<path d="M33.9091 17.6176L34.3733 16.1512L35.1244 16.3805" fill="white"/>
<path d="M34.8126 8.69501L34.3262 10.1542L35.0686 10.4102" fill="white"/>
<path d="M34.8124 8.69501L35.2988 10.1542L34.5564 10.4102" fill="white"/>
<path d="M36.2734 9.75636L34.7353 9.74468L34.7212 10.5299" fill="white"/>
<path d="M36.2735 9.75637L35.036 10.6699L34.5632 10.0429" fill="white"/>
<path d="M33.3515 9.75637L34.589 10.6699L35.0618 10.0429" fill="white"/>
<path d="M33.3516 9.75636L34.8897 9.74468L34.9038 10.5299" fill="white"/>
<path d="M35.7149 11.4736L35.2507 10.0072L34.4996 10.2365" fill="white"/>
<path d="M35.7148 11.4737L34.4636 10.579L34.9137 9.93555" fill="white"/>
<path d="M33.9092 11.4737L35.1604 10.579L34.7103 9.93555" fill="white"/>
<path d="M33.9091 11.4736L34.3733 10.0072L35.1244 10.2365" fill="white"/>
<path d="M34.8126 2.55099L34.3262 4.01019L35.0686 4.26619" fill="white"/>
<path d="M34.8124 2.55099L35.2988 4.01019L34.5564 4.26619" fill="white"/>
<path d="M36.2734 3.61234L34.7353 3.60067L34.7212 4.38584" fill="white"/>
<path d="M36.2735 3.61236L35.036 4.52587L34.5632 3.89891" fill="white"/>
<path d="M33.3515 3.61236L34.589 4.52587L35.0618 3.89891" fill="white"/>
<path d="M33.3516 3.61234L34.8897 3.60067L34.9038 4.38584" fill="white"/>
<path d="M35.7149 5.32963L35.2507 3.86321L34.4996 4.09248" fill="white"/>
<path d="M35.7148 5.32964L34.4636 4.43502L34.9137 3.79154" fill="white"/>
<path d="M33.9092 5.32964L35.1604 4.43502L34.7103 3.79154" fill="white"/>
<path d="M33.9091 5.32963L34.3733 3.86321L35.1244 4.09248" fill="white"/>
<path d="M40.9561 14.839L40.4697 16.2982L41.2121 16.5542" fill="white"/>
<path d="M40.956 14.839L41.4424 16.2982L40.7 16.5542" fill="white"/>
<path d="M42.4169 15.9003L40.8788 15.8887L40.8648 16.6738" fill="white"/>
<path d="M42.4171 15.9004L41.1796 16.8139L40.7067 16.1869" fill="white"/>
<path d="M39.495 15.9004L40.7325 16.8139L41.2054 16.1869" fill="white"/>
<path d="M39.4952 15.9003L41.0333 15.8887L41.0473 16.6738" fill="white"/>
<path d="M41.8584 17.6176L41.3943 16.1512L40.6432 16.3805" fill="white"/>
<path d="M41.8583 17.6176L40.6071 16.723L41.0573 16.0795" fill="white"/>
<path d="M40.0528 17.6176L41.304 16.723L40.8538 16.0795" fill="white"/>
<path d="M40.0527 17.6176L40.5169 16.1512L41.268 16.3805" fill="white"/>
<path d="M40.9561 8.69501L40.4697 10.1542L41.2121 10.4102" fill="white"/>
<path d="M40.956 8.69501L41.4424 10.1542L40.7 10.4102" fill="white"/>
<path d="M42.4169 9.75636L40.8788 9.74468L40.8648 10.5299" fill="white"/>
<path d="M42.4171 9.75637L41.1796 10.6699L40.7067 10.0429" fill="white"/>
<path d="M39.495 9.75637L40.7325 10.6699L41.2054 10.0429" fill="white"/>
<path d="M39.4952 9.75636L41.0333 9.74468L41.0473 10.5299" fill="white"/>
<path d="M41.8584 11.4736L41.3943 10.0072L40.6432 10.2365" fill="white"/>
<path d="M41.8583 11.4737L40.6071 10.579L41.0573 9.93555" fill="white"/>
<path d="M40.0528 11.4737L41.304 10.579L40.8538 9.93555" fill="white"/>
<path d="M40.0527 11.4736L40.5169 10.0072L41.268 10.2365" fill="white"/>
<path d="M40.9561 2.55099L40.4697 4.01019L41.2121 4.26619" fill="white"/>
<path d="M40.956 2.55099L41.4424 4.01019L40.7 4.26619" fill="white"/>
<path d="M42.4169 3.61234L40.8788 3.60067L40.8648 4.38584" fill="white"/>
<path d="M42.4171 3.61236L41.1796 4.52587L40.7067 3.89891" fill="white"/>
<path d="M39.495 3.61236L40.7325 4.52587L41.2054 3.89891" fill="white"/>
<path d="M39.4952 3.61234L41.0333 3.60067L41.0473 4.38584" fill="white"/>
<path d="M41.8584 5.32963L41.3943 3.86321L40.6432 4.09248" fill="white"/>
<path d="M41.8583 5.32964L40.6071 4.43502L41.0573 3.79154" fill="white"/>
<path d="M40.0528 5.32964L41.304 4.43502L40.8538 3.79154" fill="white"/>
<path d="M40.0527 5.32963L40.5169 3.86321L41.268 4.09248" fill="white"/>
<path d="M47.1007 14.839L46.6143 16.2982L47.3567 16.5542" fill="white"/>
<path d="M47.1005 14.839L47.5869 16.2982L46.8445 16.5542" fill="white"/>
<path d="M48.5614 15.9003L47.0234 15.8887L47.0093 16.6738" fill="white"/>
<path d="M48.5616 15.9004L47.3241 16.8139L46.8512 16.1869" fill="white"/>
<path d="M45.6396 15.9004L46.877 16.8139L47.3499 16.1869" fill="white"/>
<path d="M45.6397 15.9003L47.1778 15.8887L47.1919 16.6738" fill="white"/>
<path d="M48.003 17.6177L47.5388 16.1512L46.7877 16.3805" fill="white"/>
<path d="M48.0029 17.6177L46.7517 16.723L47.2018 16.0796" fill="white"/>
<path d="M46.1973 17.6177L47.4485 16.723L46.9984 16.0796" fill="white"/>
<path d="M46.1972 17.6177L46.6614 16.1512L47.4125 16.3805" fill="white"/>
<path d="M47.1007 8.69501L46.6143 10.1542L47.3567 10.4102" fill="white"/>
<path d="M47.1005 8.69501L47.5869 10.1542L46.8445 10.4102" fill="white"/>
<path d="M48.5614 9.75636L47.0234 9.74468L47.0093 10.5299" fill="white"/>
<path d="M48.5616 9.75637L47.3241 10.6699L46.8512 10.0429" fill="white"/>
<path d="M45.6396 9.75637L46.877 10.6699L47.3499 10.0429" fill="white"/>
<path d="M45.6397 9.75636L47.1778 9.74468L47.1919 10.5299" fill="white"/>
<path d="M48.003 11.4737L47.5388 10.0073L46.7877 10.2365" fill="white"/>
<path d="M48.0029 11.4737L46.7517 10.5791L47.2018 9.93558" fill="white"/>
<path d="M46.1973 11.4737L47.4485 10.5791L46.9984 9.93558" fill="white"/>
<path d="M46.1972 11.4737L46.6614 10.0073L47.4125 10.2365" fill="white"/>
<path d="M47.1007 2.55099L46.6143 4.01019L47.3567 4.26619" fill="white"/>
<path d="M47.1005 2.55099L47.5869 4.01019L46.8445 4.26619" fill="white"/>
<path d="M48.5614 3.61234L47.0234 3.60067L47.0093 4.38584" fill="white"/>
<path d="M48.5616 3.61236L47.3241 4.52587L46.8512 3.89891" fill="white"/>
<path d="M45.6396 3.61236L46.877 4.52587L47.3499 3.89891" fill="white"/>
<path d="M45.6397 3.61234L47.1778 3.60067L47.1919 4.38584" fill="white"/>
<path d="M48.003 5.32963L47.5388 3.86321L46.7877 4.09248" fill="white"/>
<path d="M48.0029 5.32964L46.7517 4.43502L47.2018 3.79154" fill="white"/>
<path d="M46.1973 5.32964L47.4485 4.43502L46.9984 3.79154" fill="white"/>
<path d="M46.1972 5.32963L46.6614 3.86321L47.4125 4.09248" fill="white"/>
<path d="M22.5245 14.839L22.0381 16.2982L22.7805 16.5542" fill="white"/>
<path d="M22.5243 14.839L23.0107 16.2982L22.2683 16.5542" fill="white"/>
<path d="M23.9853 15.9003L22.4472 15.8887L22.4331 16.6738" fill="white"/>
<path d="M23.9854 15.9004L22.748 16.8139L22.2751 16.1869" fill="white"/>
<path d="M21.0634 15.9004L22.3009 16.8139L22.7738 16.1869" fill="white"/>
<path d="M21.0636 15.9003L22.6016 15.8887L22.6157 16.6738" fill="white"/>
<path d="M23.4268 17.6176L22.9626 16.1512L22.2115 16.3805" fill="white"/>
<path d="M23.4267 17.6176L22.1755 16.723L22.6256 16.0795" fill="white"/>
<path d="M21.6211 17.6176L22.8723 16.723L22.4222 16.0795" fill="white"/>
<path d="M21.621 17.6176L22.0852 16.1512L22.8363 16.3805" fill="white"/>
<path d="M28.668 14.839L28.1816 16.2982L28.924 16.5542" fill="white"/>
<path d="M28.6679 14.839L29.1543 16.2982L28.4119 16.5542" fill="white"/>
<path d="M30.1288 15.9003L28.5907 15.8887L28.5767 16.6738" fill="white"/>
<path d="M30.129 15.9004L28.8915 16.8139L28.4186 16.1869" fill="white"/>
<path d="M27.2069 15.9004L28.4444 16.8139L28.9173 16.1869" fill="white"/>
<path d="M27.2071 15.9003L28.7452 15.8887L28.7593 16.6738" fill="white"/>
<path d="M29.5704 17.6176L29.1062 16.1512L28.3551 16.3805" fill="white"/>
<path d="M29.5703 17.6176L28.3191 16.723L28.7692 16.0795" fill="white"/>
<path d="M27.7647 17.6176L29.0159 16.723L28.5658 16.0795" fill="white"/>
<path d="M27.7646 17.6176L28.2288 16.1512L28.9799 16.3805" fill="white"/>
<path d="M28.668 8.69501L28.1816 10.1542L28.924 10.4102" fill="white"/>
<path d="M28.6679 8.69501L29.1543 10.1542L28.4119 10.4102" fill="white"/>
<path d="M30.1288 9.75636L28.5907 9.74468L28.5767 10.5299" fill="white"/>
<path d="M30.129 9.75637L28.8915 10.6699L28.4186 10.0429" fill="white"/>
<path d="M27.2069 9.75637L28.4444 10.6699L28.9173 10.0429" fill="white"/>
<path d="M27.2071 9.75636L28.7452 9.74468L28.7593 10.5299" fill="white"/>
<path d="M29.5704 11.4736L29.1062 10.0072L28.3551 10.2365" fill="white"/>
<path d="M29.5703 11.4737L28.3191 10.579L28.7692 9.93555" fill="white"/>
<path d="M27.7647 11.4737L29.0159 10.579L28.5658 9.93555" fill="white"/>
<path d="M27.7646 11.4736L28.2288 10.0072L28.9799 10.2365" fill="white"/>
</g>
<defs>
<clipPath id="clip0_24_35750">
<rect width="64" height="64" rx="32" fill="white"/>
</clipPath>
</defs>
</svg>
