<svg width="1077" height="529" viewBox="0 0 1077 529" fill="none" xmlns="http://www.w3.org/2000/svg">
<path d="M1444.27 620.777C1443.1 616.787 1441.14 613.994 1437.23 612.797C1436.84 611.999 1436.06 611.6 1435.67 610.802C1432.15 610.802 1430.19 609.206 1430.58 606.014C1429.8 605.216 1429.41 604.418 1428.63 604.019L1423.94 599.231C1423.94 599.231 1422.76 598.034 1421.98 597.236C1418.46 597.236 1416.9 595.64 1416.9 592.048C1414.55 590.053 1412.59 587.659 1410.25 585.664C1408.29 580.876 1403.6 578.881 1400.08 575.29C1399.3 574.891 1398.91 574.093 1398.52 573.694C1387.96 560.527 1375.06 549.754 1364.11 537.385C1356.68 529.405 1347.29 523.021 1340.64 513.844C1335.95 507.859 1330.87 501.874 1323.83 497.884C1323.05 497.086 1321.87 496.288 1320.7 495.889C1321.09 491.898 1317.18 492.298 1315.62 490.702C1316.01 487.909 1314.44 486.711 1312.49 485.515C1311.71 483.519 1310.14 483.919 1308.58 483.919C1310.53 476.736 1303.1 477.534 1300.37 474.342C1293.72 466.362 1285.9 459.18 1278.47 451.599C1278.08 450.801 1277.69 450.003 1276.51 450.003H1274.95C1272.6 445.614 1268.69 442.821 1264.78 440.028C1260.09 433.644 1255.79 427.659 1249.14 422.871C1244.45 419.679 1239.37 415.29 1237.41 409.305C1237.41 316.736 1237.8 223.768 1237.8 130.8C1237.8 128.007 1237.02 124.815 1238.19 122.421C1240.54 117.633 1238.58 114.042 1235.85 110.451C1235.45 110.052 1235.06 109.653 1234.67 109.653C1233.11 107.259 1230.76 108.057 1228.42 108.057H932.009C932.009 108.057 930.054 106.062 929.663 104.466C929.272 104.466 928.881 103.269 928.099 102.87H928.49C928.49 100.077 927.708 98.8799 924.971 99.2789C924.971 98.4809 924.189 97.6828 923.015 97.6828C922.624 96.8848 922.233 96.4859 921.451 96.0868C919.105 91.6978 915.977 88.1068 911.284 85.7127C910.111 81.3237 907.374 78.5307 903.073 77.3336C902.29 76.9346 901.899 76.5356 901.508 75.7376C901.508 72.1466 899.553 70.5506 896.034 70.5506C895.643 70.1516 894.861 69.3536 894.47 68.9546C893.297 63.3685 888.604 61.3735 884.303 58.5805C881.956 55.3885 880.392 51.3984 875.7 50.2014L874.136 48.6054V47.8074C874.136 44.6154 872.18 43.4184 869.052 43.4184C868.661 43.0193 867.879 42.2213 867.488 41.8223C862.014 35.0393 856.539 28.2562 848.718 23.0692C849.109 19.4781 847.545 17.8821 843.635 17.8821C836.596 10.301 830.339 1.92196 821.737 -4.0631V-4.86111C821.737 -8.05314 819.781 -9.25016 816.653 -9.25016C815.871 -9.64916 815.48 -10.0482 815.089 -10.8462C813.134 -12.4422 811.57 -14.4372 810.005 -16.4322C800.229 -28.4023 787.325 -37.1804 776.376 -47.9535C777.158 -52.3426 772.466 -53.1406 770.511 -55.1356C756.042 -70.6967 741.574 -86.6569 725.541 -100.622C722.804 -103.814 721.631 -100.622 720.458 -99.425C706.771 -86.2579 693.085 -73.0908 679.79 -59.9236C658.674 -38.7764 638.731 -16.8312 617.224 3.51797C606.666 13.4931 597.281 24.2662 586.723 33.8423C578.12 41.8223 571.472 50.9994 562.869 58.5805C560.132 58.1815 559.35 59.7775 559.35 62.1715C554.267 62.5705 553.876 67.7576 551.138 70.9496C541.753 77.7327 534.715 87.3088 525.721 94.4908C518.682 100.077 514.381 108.057 503.041 108.057C409.974 107.658 316.516 108.057 223.448 108.057C220.711 109.254 217.974 110.451 214.846 108.855C211.717 107.259 213.673 110.451 212.89 111.249C209.762 113.643 211.326 116.835 211.326 120.027V400.926C211.326 403.719 211.717 406.512 211.717 409.704C212.108 414.891 205.852 411.699 204.679 415.29C201.55 423.669 194.512 428.856 188.255 434.841C179.261 443.619 169.094 451.599 160.882 460.776C149.151 473.544 136.247 485.115 124.516 497.884C110.439 512.647 95.188 526.612 81.5017 541.774C68.5974 556.537 54.129 569.704 40.4427 583.669C27.9295 596.039 15.8073 608.408 3.2941 621.176C-3.35354 624.767 1.72995 627.161 4.07618 629.555C34.9682 660.278 65.4691 691.001 96.3611 721.725C96.7522 722.124 97.1432 722.523 97.5343 722.922C98.3163 723.321 99.0984 724.119 99.4894 724.518C100.272 725.316 100.663 726.114 101.445 726.912C104.573 730.104 108.092 733.296 111.221 736.488C112.785 738.483 113.958 740.079 116.304 741.675C118.65 743.67 120.997 746.064 123.343 748.458C134.292 759.63 144.85 770.802 156.19 781.974C160.491 785.964 164.011 791.949 170.267 794.343C169.485 796.338 171.049 796.338 172.223 797.136C176.133 798.732 175.742 804.717 180.434 805.914C181.216 806.314 181.607 807.112 182.389 807.511C184.736 809.905 184.736 814.294 189.037 814.294C188.255 818.683 192.556 817.486 194.121 819.082C200.377 823.072 203.115 830.254 209.371 834.643C210.153 836.638 208.589 839.83 210.935 841.426C211.326 843.022 211.326 845.017 211.717 846.613C211.717 847.411 211.326 848.209 211.326 849.007V1309.86C211.326 1309.86 210.153 1314.64 212.89 1315.84C212.108 1342.57 214.846 1368.51 219.929 1394.84C222.666 1410.01 226.968 1424.77 231.66 1439.53C251.212 1508.16 282.495 1570.41 329.811 1623.87C333.721 1631.85 340.76 1637.44 346.234 1644.22C346.234 1646.62 347.408 1648.61 349.754 1649.41C350.927 1650.61 352.1 1651.8 353.273 1653C353.664 1653.4 354.446 1653.8 354.837 1654.6C357.574 1656.59 357.183 1661.38 361.876 1661.38C363.049 1661.78 364.222 1662.58 365.395 1663.37C365.786 1664.17 366.568 1664.57 366.959 1665.37C367.35 1669.36 370.87 1670.95 373.607 1672.95C373.607 1674.15 373.607 1674.94 375.171 1674.94C375.171 1675.74 375.953 1676.54 376.735 1676.54C376.735 1677.74 377.517 1678.14 378.691 1678.14C379.082 1678.93 379.864 1679.33 380.255 1679.73C380.646 1681.33 381.428 1681.73 382.992 1681.33C389.64 1686.91 396.287 1692.9 403.326 1698.09C417.794 1709.26 431.872 1721.23 447.904 1730.41C458.462 1736.79 468.238 1744.77 479.969 1749.16C480.752 1749.96 481.143 1750.36 481.534 1751.15C485.444 1756.34 490.918 1757.94 497.175 1757.94L498.739 1759.53C498.739 1759.53 499.912 1761.13 500.694 1761.13H501.868C501.868 1761.13 503.432 1762.73 504.605 1762.73C505.387 1764.32 507.342 1764.72 508.906 1764.72C508.906 1765.92 510.079 1766.32 511.252 1766.32C512.426 1767.91 513.99 1767.91 515.554 1767.91C518.291 1771.9 522.201 1771.1 525.721 1771.5C538.625 1777.89 552.311 1782.68 565.998 1786.67C571.081 1789.86 576.947 1791.85 583.203 1791.85C583.594 1794.25 585.55 1793.05 587.114 1793.05H587.505C592.979 1795.84 598.063 1799.43 604.711 1797.84C606.666 1797.84 608.23 1798.24 609.794 1798.24C616.442 1803.42 624.262 1803.02 632.083 1803.42C633.256 1805.02 633.647 1807.01 636.385 1807.01C642.641 1807.41 649.289 1807.81 655.545 1808.21C662.975 1807.81 670.405 1811.4 678.226 1809.81C689.566 1813.4 701.688 1811.8 713.419 1813C722.413 1811.4 731.407 1813 740.401 1812.6C745.484 1811 750.959 1811.8 756.042 1812.6C771.684 1813.8 786.543 1809.81 801.403 1807.41C815.48 1806.62 828.775 1803.42 841.68 1798.64C849.109 1799.03 856.539 1797.84 862.796 1793.85H863.578C863.578 1793.85 867.879 1794.25 869.052 1792.25C873.354 1792.65 877.264 1791.45 880.783 1788.66C884.694 1785.47 891.732 1789.86 894.47 1783.47C897.989 1783.07 902.681 1785.07 904.637 1780.28C913.239 1776.69 921.842 1773.1 930.445 1769.51C961.728 1756.34 990.665 1739.98 1018.43 1720.43C1032.51 1710.85 1045.02 1699.28 1058.31 1688.91C1061.05 1688.91 1062.62 1687.71 1063.4 1685.32C1064.18 1684.92 1064.57 1684.12 1064.96 1683.72C1065.74 1682.92 1066.53 1682.53 1066.92 1681.73C1067.31 1681.33 1068.09 1680.93 1068.48 1680.13C1072 1680.53 1073.96 1678.14 1074.74 1675.34C1074.74 1672.55 1076.69 1671.35 1078.65 1669.76C1084.51 1665.77 1089.99 1660.98 1093.9 1654.6C1094.29 1654.2 1095.07 1653.4 1095.46 1653C1100.55 1652.2 1103.28 1649.41 1104.07 1644.62C1104.85 1644.22 1105.24 1643.42 1105.63 1643.02H1106.02C1106.02 1643.02 1106.8 1641.83 1107.59 1641.03C1107.98 1641.03 1108.76 1640.23 1109.15 1639.83C1111.5 1639.83 1112.67 1639.03 1112.67 1637.04C1112.67 1636.64 1112.28 1636.24 1112.28 1635.44C1112.67 1635.44 1112.67 1635.04 1112.28 1634.65C1113.84 1635.04 1114.23 1634.65 1113.45 1633.45C1123.23 1623.07 1131.83 1612.3 1139.65 1600.73C1140.04 1599.93 1140.82 1599.53 1141.21 1599.13C1145.52 1596.74 1147.86 1593.55 1148.25 1588.76C1152.55 1586.76 1154.12 1583.17 1154.51 1578.78C1157.25 1574.4 1160.38 1570.41 1162.72 1566.02C1168.59 1555.64 1175.63 1545.67 1179.93 1534.5C1186.18 1527.71 1190.49 1519.73 1192.05 1510.95C1193.22 1510.95 1193.22 1510.95 1193.22 1509.76C1193.22 1502.18 1201.43 1498.19 1200.26 1490.21C1201.83 1490.21 1203.39 1491 1203.78 1489.01C1204.95 1483.82 1206.13 1478.63 1207.3 1473.45C1209.26 1467.86 1211.6 1462.28 1213.17 1456.29C1218.64 1437.94 1226.46 1420.38 1227.24 1400.83C1230.37 1394.45 1231.54 1387.66 1232.72 1380.88C1234.67 1369.71 1235.45 1358.14 1236.24 1346.96C1237.8 1330.21 1238.58 1313.45 1238.58 1297.09C1238.97 1289.11 1237.41 1280.73 1237.41 1272.75V1112.75C1237.41 1112.75 1237.8 1111.55 1238.19 1111.15C1237.8 1110.75 1237.41 1110.35 1237.41 1109.96C1238.97 1088.41 1237.8 1067.26 1237.8 1045.72C1237.8 1028.96 1238.97 1012.2 1237.41 995.441C1237.41 995.042 1237.8 994.643 1238.19 994.244C1237.8 993.446 1237.8 993.047 1237.41 992.648V855.391C1237.41 855.391 1237.8 854.593 1237.41 854.194C1239.37 853.396 1239.76 852.199 1237.41 851.002C1237.8 851.002 1237.8 850.603 1237.41 850.204C1237.02 844.618 1239.37 839.032 1237.8 833.446C1246.4 833.047 1249.14 825.067 1254.62 820.678C1256.96 818.284 1258.92 815.491 1261.26 813.097C1263.61 811.9 1265.17 810.304 1266.35 807.909C1267.13 807.51 1267.91 806.713 1268.3 806.314C1273.39 801.127 1278.47 795.939 1283.55 790.353C1291.37 781.974 1299.58 773.595 1308.58 766.014C1309.36 765.216 1309.75 764.817 1310.53 764.019C1312.49 762.822 1314.44 761.226 1315.62 758.832C1318.35 756.438 1322.27 755.241 1321.87 750.453C1323.83 748.857 1326.96 748.458 1328.91 746.064C1337.52 735.291 1347.68 725.715 1357.85 715.74C1358.63 715.74 1360.59 714.942 1359.8 713.346C1361.37 714.144 1361.76 712.548 1362.54 711.351C1363.32 710.952 1363.72 710.154 1364.5 709.755C1366.84 708.558 1368.41 706.962 1369.58 704.568C1372.32 704.967 1373.49 703.77 1373.1 700.977L1374.66 699.38C1374.66 699.38 1377.4 697.785 1378.18 696.188C1378.57 695.39 1379.36 694.991 1379.75 694.592C1380.14 693.794 1380.92 693.395 1381.7 692.597C1382.09 692.198 1382.48 691.4 1383.27 691.001C1387.57 692.198 1388.74 689.405 1388.74 685.814C1389.13 685.814 1389.52 685.016 1389.91 684.617C1391.87 684.218 1393.83 683.819 1393.43 681.026C1394.61 681.026 1395 680.228 1395 679.031C1395.78 678.632 1396.17 678.233 1396.56 677.435C1397.34 677.036 1397.74 676.238 1398.52 675.839C1399.3 675.839 1400.08 675.041 1400.08 674.243C1400.86 673.445 1401.25 673.046 1401.65 672.248C1402.82 672.248 1403.6 671.849 1403.6 670.652C1403.99 669.854 1404.38 669.455 1404.77 669.056C1409.08 667.46 1410.25 662.672 1413.38 659.879C1425.5 650.303 1434.88 638.732 1445.44 627.56C1448.18 624.767 1447.01 622.772 1444.27 621.176V620.777ZM1334.39 590.053C1334.39 590.053 1334.78 587.26 1334.39 586.462C1335.17 587.26 1335.95 588.856 1334.39 590.053ZM1192.83 450.801C1207.3 464.367 1221.38 478.731 1235.85 493.096C1255.01 512.248 1273.78 531.001 1292.94 550.153C1301.93 559.33 1310.93 568.108 1319.92 577.285C1324.22 582.073 1328.52 587.26 1334 590.852C1341.04 598.832 1348.46 606.413 1355.89 614.393V615.989C1355.89 615.989 1354.72 615.989 1354.33 616.388H1078.65C1064.96 618.383 1051.67 618.383 1037.98 616.388C1021.56 616.388 1004.74 616.388 988.319 615.989C986.364 615.989 983.626 615.191 982.062 617.585C978.934 617.186 975.806 616.388 972.286 615.989C970.722 592.448 966.421 569.704 960.555 546.961C959.382 542.971 953.907 541.375 955.472 536.587C957.427 532.597 958.6 529.405 963.683 528.607C966.812 528.607 969.94 526.213 971.504 523.021C973.068 523.021 974.632 525.814 975.415 522.223C975.806 522.223 976.588 522.622 976.979 522.223C982.844 520.627 989.492 521.026 993.011 514.642C994.575 514.243 996.922 517.435 997.313 513.445C1002.01 513.445 1006.7 512.647 1009.83 507.859C1010.61 508.258 1011.78 508.258 1012.56 508.657C1013.35 508.657 1013.74 509.056 1014.13 509.056C1047.76 494.293 1082.56 481.923 1116.58 468.357C1133.78 461.574 1151.38 455.589 1167.81 446.412C1172.89 442.821 1179.15 442.821 1184.62 441.624C1187.75 440.826 1189.7 447.609 1192.83 450.801ZM1327.74 618.383C1321.48 617.585 1315.23 618.383 1308.97 618.782C1315.62 617.585 1321.87 617.186 1327.74 618.383ZM1178.36 188.257C1179.54 232.546 1176.41 276.836 1178.75 321.125C1178.36 356.237 1178.36 391.35 1178.36 426.063C1177.97 426.861 1177.19 427.26 1176.8 428.058C1175.63 428.457 1174.84 429.255 1173.67 429.654C1172.5 430.053 1171.32 430.053 1170.54 430.452C1153.34 436.836 1136.52 443.619 1119.71 450.402C1107.98 453.993 1096.64 459.579 1084.91 463.569C1073.17 467.958 1061.05 472.347 1050.1 478.731C1033.68 483.12 1018.04 490.303 1002.4 497.086C998.095 497.086 994.575 499.879 991.056 501.076C989.101 501.874 987.537 503.071 985.582 503.869C973.85 506.263 963.292 512.647 951.952 516.238C950.779 516.637 949.997 517.036 948.824 517.435C947.26 514.642 945.696 511.45 944.131 508.657C939.83 501.475 937.093 493.096 930.054 487.51C929.663 479.928 923.406 476.736 919.887 471.948C917.15 466.761 913.631 462.372 908.938 458.781C902.29 453.993 901.508 448.806 907.374 443.22C911.675 441.225 914.413 437.634 917.15 434.442C921.06 430.053 923.406 430.053 927.708 434.442C938.657 446.811 956.645 449.604 969.158 442.023C979.325 435.639 984.799 426.861 984.017 414.492C983.235 402.123 976.588 394.143 965.248 388.956C969.549 381.375 976.588 375.788 982.844 369.404C993.011 359.03 1004.74 350.651 1014.13 339.878C1025.86 327.11 1038.37 315.14 1050.88 302.771C1052.06 301.574 1053.23 300.377 1052.45 298.382C1053.62 298.781 1054.4 298.781 1054.4 297.584H1054.8C1054.8 297.584 1055.97 294.392 1057.53 293.993C1059.49 293.195 1061.05 291.599 1061.83 289.604C1062.22 288.806 1063.01 288.008 1063.79 287.21C1064.18 286.811 1064.57 286.412 1064.96 286.013C1069.65 285.614 1071.22 282.821 1072 278.831C1073.17 277.634 1073.96 276.836 1075.13 276.038C1083.73 272.846 1088.82 266.461 1092.33 258.481C1093.12 258.082 1093.51 257.683 1093.51 257.284C1099.37 256.885 1101.72 252.895 1103.28 248.107H1104.07C1107.19 248.107 1107.98 245.713 1108.76 243.319C1127.92 229.753 1143.17 211.399 1159.98 195.04C1165.46 189.853 1170.54 184.267 1175.63 178.681C1180.71 180.676 1178.36 185.065 1178.36 188.257ZM764.254 499.081C764.254 499.081 763.472 500.278 762.69 500.677C759.171 509.854 754.478 519.031 751.35 528.607C749.004 536.587 745.093 537.784 738.055 534.991C736.881 534.592 735.317 534.991 733.753 534.592C733.753 501.076 733.753 467.16 733.362 433.245C733.362 432.447 733.362 432.048 732.971 431.25C749.786 431.25 765.427 435.24 781.069 440.028C786.543 441.624 786.934 444.816 784.588 449.604C781.46 456.387 777.158 462.771 776.376 470.352C770.902 479.529 766.991 489.106 763.863 499.081H764.254ZM767.773 531.001C778.722 505.465 789.28 479.529 799.839 453.993C800.621 451.998 801.012 450.402 800.621 448.407C801.012 448.008 801.403 447.609 802.185 447.21H804.14C804.14 447.21 805.313 448.008 806.095 448.407C811.57 451.998 816.653 456.387 823.692 457.983C824.865 460.377 827.211 461.175 829.166 461.973C829.557 462.372 829.557 462.771 829.557 462.771H829.948C836.596 467.16 841.68 473.943 848.718 477.534C848.718 478.731 849.109 480.726 847.545 481.923C824.083 503.47 801.403 526.612 779.113 549.754C774.812 554.542 771.684 548.158 767.773 548.158C762.299 542.173 765.818 536.986 767.773 531.001ZM833.468 516.637C842.853 507.859 852.238 499.879 862.405 490.303C865.924 494.293 869.052 498.283 872.572 501.874C879.219 511.849 885.867 521.824 892.514 531.799C894.079 536.188 892.906 538.981 888.213 541.375C882.739 544.168 876.873 544.168 871.789 546.562C857.321 552.547 843.244 558.931 828.775 565.315C820.564 568.108 812.743 570.901 804.531 573.694C796.71 576.487 792.409 574.492 789.672 566.113C789.28 564.517 789.28 563.32 788.889 561.724C802.185 545.365 818.217 531.4 833.468 516.637ZM812.352 588.058C818.217 587.26 823.692 582.472 829.948 580.477C829.948 580.477 829.557 580.078 829.557 579.679C829.948 579.679 830.339 579.679 830.73 580.078C851.847 572.098 872.181 562.921 893.688 556.138C894.079 556.138 894.079 554.542 894.47 553.345C901.117 551.749 903.073 554.542 905.028 560.926C909.329 576.088 912.848 591.65 914.804 608.009C914.804 610.802 914.022 613.196 912.848 615.989C910.111 618.383 906.592 617.585 903.073 617.585C902.29 615.59 900.335 615.989 898.771 615.989C871.007 616.388 842.853 616.388 815.089 616.388C809.223 617.186 807.659 613.196 806.486 608.807C805.704 605.615 804.922 602.423 804.922 599.231C804.531 593.645 804.14 589.655 812.352 588.058ZM903.855 203.02C909.329 190.252 913.63 177.484 921.06 165.513C924.189 169.504 928.49 167.109 932.009 167.109H1161.16C1162.33 170.701 1159.2 171.898 1158.03 174.292C1149.43 182.272 1141.21 190.651 1132.61 199.03C1124.4 206.212 1116.97 213.793 1109.15 221.773C1078.65 252.496 1048.15 283.619 1016.86 313.943C1001.61 328.307 987.146 343.469 972.286 358.232C971.113 358.232 970.331 359.03 970.331 360.227C967.203 361.823 964.857 363.818 963.683 367.01C955.472 374.591 946.869 382.173 938.657 389.754C938.657 365.414 950.779 349.055 971.895 338.282C975.023 336.287 978.934 334.691 976.979 330.302C975.023 325.514 971.113 328.706 968.376 329.903C938.266 341.075 912.066 366.611 916.759 412.896C910.893 418.881 905.028 425.265 899.162 431.25C898.38 432.048 897.598 432.447 896.816 433.245H896.425C896.425 433.245 894.47 433.245 894.47 434.841C891.732 437.634 889.386 438.432 885.476 435.24C873.354 424.866 861.231 414.891 846.763 407.709C838.942 404.118 830.339 400.926 824.865 394.143C831.513 372.995 842.462 353.843 850.673 333.494C859.276 311.15 868.27 289.205 878.046 267.259C887.431 246.112 894.861 224.167 903.855 203.02ZM731.407 35.0393C731.407 32.6452 731.407 30.6502 731.798 28.2562C731.407 19.8771 736.49 11.498 731.407 3.11897V-0.0730667C732.189 -2.46709 732.971 -4.86111 734.144 -6.85612C744.702 -0.472061 752.132 9.90202 760.735 18.2811C763.081 20.2761 766.6 21.8721 767.773 24.6652C778.331 35.0393 788.498 45.0144 798.665 55.3885C815.089 72.9446 832.295 90.5008 849.5 107.658C865.924 123.618 881.565 139.977 898.771 155.139C901.899 157.932 903.073 161.124 903.073 164.715C901.508 165.513 901.117 166.312 901.508 167.908H901.117C899.162 169.903 897.989 171.898 897.989 174.691C895.252 176.287 896.425 178.681 896.034 180.676C893.688 182.671 894.47 185.065 894.861 187.459C892.906 192.247 887.431 195.439 888.213 201.424C887.431 202.222 887.04 203.419 886.258 204.616C886.258 204.616 885.867 205.015 886.258 205.813C886.258 206.212 885.867 206.611 885.867 206.611V205.813C885.867 205.813 884.303 207.01 884.303 208.606C881.174 212.197 880.392 216.985 879.219 221.374C876.873 223.369 875.309 225.364 876.091 228.556C875.7 228.955 875.7 229.354 876.091 229.354C874.527 231.748 871.789 233.743 872.18 236.935C871.007 238.132 870.616 239.329 870.616 241.324C868.27 243.319 867.879 246.112 867.488 249.304C865.142 251.299 864.36 254.092 863.969 256.885C861.622 258.082 862.405 260.077 862.405 262.072C862.013 263.269 861.231 264.466 860.84 265.663C860.449 266.062 860.449 266.461 860.84 266.461C860.058 267.259 859.667 268.057 858.885 268.855C857.712 269.653 856.93 270.85 857.321 272.846C854.584 276.437 853.802 280.427 853.802 284.417C853.411 285.215 852.629 286.013 852.238 286.811C851.064 287.21 850.282 288.407 850.673 289.604C850.673 289.604 848.718 291.599 848.718 293.195C846.763 296.387 846.763 299.978 845.59 303.17C845.59 303.17 843.635 305.165 843.635 306.761C840.506 310.751 839.724 315.14 838.551 319.529C836.205 321.524 834.641 323.918 835.423 326.711C835.032 327.11 835.032 327.509 835.423 327.908C834.25 330.302 831.122 331.898 831.904 335.09C830.339 336.287 829.948 337.484 830.339 339.479C827.602 341.474 827.211 344.666 826.82 347.459C824.865 349.853 823.692 352.247 823.301 355.04C820.563 356.636 822.128 359.828 821.346 361.823C819.781 364.616 818.217 367.409 816.653 370.601V373.793C816.653 373.793 815.089 375.788 814.307 376.985C812.743 378.98 811.57 380.976 811.57 383.769C809.223 388.158 805.313 390.552 800.621 388.557C780.286 380.178 759.171 378.183 737.663 377.384C734.926 376.985 733.753 376.188 733.753 373.793C733.753 331.1 733.753 288.008 733.362 245.314C733.753 222.172 733.753 199.429 733.753 176.287C733.753 149.553 733.362 122.82 733.362 96.0868C733.362 89.3038 734.144 82.1217 733.362 75.3386C732.189 64.9646 734.926 54.1915 731.407 43.8174V35.0393ZM720.067 629.954C720.067 629.954 722.804 630.752 723.977 631.151C724.368 631.55 724.759 633.146 724.759 633.146C738.055 628.757 751.741 631.949 765.036 631.151C779.505 630.353 793.973 631.949 808.441 629.954C811.961 629.954 815.089 629.954 818.217 630.353C820.172 631.55 821.737 631.151 823.692 629.954C849.891 629.954 876.091 630.353 902.681 630.353C903.464 631.949 904.637 632.348 906.201 630.353H910.111C910.111 630.353 912.848 631.949 914.413 632.348C915.586 641.924 912.848 651.899 912.457 661.475C909.72 671.849 906.592 681.824 903.464 692.198C897.207 704.967 890.559 717.735 884.303 730.503C883.521 731.301 883.13 732.099 882.347 732.897C882.347 733.695 881.565 734.094 880.783 734.493C879.61 734.493 879.219 735.291 879.219 736.089C878.046 736.089 877.264 736.887 877.655 738.084C877.264 738.483 877.264 738.882 877.264 738.882C876.873 739.68 876.482 740.478 875.7 741.276C874.918 741.276 874.136 742.074 874.136 742.872H873.745C865.924 753.645 856.148 762.423 847.154 771.999C839.724 773.994 834.25 779.181 828.775 783.969C820.955 790.353 811.57 792.747 803.358 797.934C801.403 799.131 798.665 799.929 797.492 802.323C779.505 808.309 761.517 812.698 742.356 814.693C740.01 814.693 737.663 815.491 735.317 815.89C709.509 816.688 684.482 811.102 659.456 803.92C643.814 797.136 628.955 788.358 614.095 779.979C605.884 772.797 597.281 765.216 589.069 758.034C558.959 725.316 540.189 687.41 535.497 642.722C532.76 635.54 535.106 631.151 543.318 631.151C544.1 631.151 545.273 630.353 546.446 629.954H551.529C578.511 629.555 605.493 629.954 632.474 629.954C634.038 631.151 635.993 630.752 637.558 629.954H659.065C677.835 632.348 696.213 632.348 714.983 630.353H717.329C717.329 630.353 718.894 629.954 720.067 629.954ZM688.002 504.268C679.79 485.514 673.924 466.362 664.148 448.407C662.975 438.033 670.405 438.432 677.053 437.235C689.566 434.442 702.079 430.851 715.374 431.25V529.804C714.983 532.996 714.983 536.986 709.9 536.188C705.989 535.789 702.079 537.784 699.733 531.001C697.778 525.415 696.213 519.031 691.521 514.243C690.739 512.647 690.348 511.051 689.566 509.455C690.348 507.46 689.566 505.465 688.002 504.268ZM664.539 493.096C666.885 498.682 669.232 503.869 671.578 509.056C671.969 510.253 672.36 511.051 672.751 511.849C673.142 513.445 673.142 515.041 674.706 516.238C675.097 517.435 675.879 518.632 676.271 519.829C676.271 520.228 676.27 520.627 676.661 521.026C676.661 521.824 677.444 522.622 677.835 523.42C677.835 523.819 677.835 524.218 678.226 524.617C679.79 528.607 680.572 532.996 682.918 536.986C686.046 542.971 682.527 545.764 678.617 548.557C674.315 552.148 671.969 548.557 669.623 546.163C646.943 523.819 624.653 501.874 602.364 479.529C603.537 473.544 609.012 471.549 613.313 467.958C622.307 460.776 632.474 455.988 642.641 450.402C643.814 449.604 645.769 450.402 647.334 450.003C651.244 465.165 659.456 478.731 664.539 493.096ZM627.391 529.804C627.391 529.804 628.564 531.001 629.346 531.4C635.994 539.38 643.032 546.961 651.244 553.345C653.59 558.133 661.802 560.527 659.065 568.507C653.199 577.285 646.161 572.896 639.122 570.103C628.955 566.113 619.57 560.926 608.621 558.532C607.448 558.532 606.666 558.532 605.493 558.532C590.242 549.355 573.036 544.567 556.613 538.183C557.004 532.198 559.35 527.011 562.869 521.824C568.344 514.243 574.21 507.061 579.684 499.48C586.332 490.702 587.114 490.702 594.544 497.884C605.493 508.657 615.66 520.228 627.391 530.203V529.804ZM644.987 592.448C644.205 598.433 643.032 604.418 641.859 610.403C641.077 615.59 637.167 615.989 633.647 615.989C605.884 615.59 578.511 616.787 550.356 615.191C547.228 615.191 544.1 615.191 540.971 615.989C537.452 616.388 534.715 615.59 535.106 611.201C536.67 594.443 539.016 577.684 544.491 561.724C546.446 555.739 548.792 553.345 556.222 556.537C585.55 568.906 616.051 579.28 644.987 592.448ZM566.78 137.583C583.985 120.027 601.582 102.471 618.788 84.9147C623.48 80.5257 628.564 76.1367 632.083 70.5506C632.865 68.9546 633.647 67.3586 634.429 65.7625C639.122 64.9645 642.25 61.7725 645.378 58.5805C653.981 50.2014 662.193 41.8223 670.405 33.4433C684.873 19.0791 699.342 4.71498 713.81 -9.64916C716.938 -7.25514 714.592 -3.6641 715.374 -0.871078V373.793C710.291 379.779 702.47 377.783 696.604 378.581C679.79 380.178 664.148 383.37 648.507 388.557C644.596 389.754 641.468 391.35 638.731 384.567C624.262 352.247 611.358 319.529 597.672 287.21C596.89 286.013 596.108 284.816 595.326 283.619C582.421 249.703 567.953 215.788 553.094 182.272C553.094 181.873 552.702 181.075 552.702 180.676C552.311 179.878 551.92 179.479 551.529 178.681C551.138 171.499 547.228 165.913 544.491 159.528C551.92 152.346 559.35 144.765 566.78 137.583ZM301.265 167.109H521.81C521.81 167.109 525.33 167.908 526.112 165.513C533.542 177.883 538.234 191.848 544.1 204.616C544.1 207.01 546.446 208.606 547.228 210.601C555.831 236.935 569.908 261.673 579.684 287.609C583.594 303.569 591.415 317.534 597.281 332.297C605.493 351.848 613.704 371.399 621.916 390.552C624.262 395.739 622.698 398.532 617.615 400.926C597.672 409.305 580.075 421.674 564.043 436.038C561.696 438.432 559.35 440.028 557.004 436.437C546.055 425.664 535.888 414.093 524.548 404.118C522.984 402.522 521.81 400.926 520.637 399.729C506.56 386.163 492.092 372.197 478.014 358.631C468.629 351.848 463.155 341.075 453.379 334.691C447.904 328.706 442.821 322.721 436.173 318.332C432.263 315.539 428.352 312.347 426.006 307.958C425.615 307.16 425.224 306.362 424.442 305.564L423.269 304.367C423.269 304.367 421.705 302.372 420.532 302.771C420.141 299.978 418.576 299.18 416.23 299.18C416.23 296.387 414.666 295.19 413.102 293.594C406.845 288.008 400.589 282.821 394.332 277.235C388.467 270.85 381.819 264.865 376.344 258.481C368.524 248.905 359.921 240.526 350.145 233.344C343.888 222.571 333.33 216.187 324.727 207.808C318.08 201.025 311.432 194.242 304.784 187.459C299.701 182.272 295.008 177.085 289.534 172.297C287.579 170.701 287.97 169.504 287.579 167.908C292.271 167.509 296.573 167.109 301.265 167.109ZM273.501 181.474C281.713 189.454 289.925 197.035 298.137 204.616C299.31 205.813 300.483 207.409 301.656 208.606H302.047C302.047 208.606 304.784 212.197 307.131 212.995C308.304 214.99 309.477 216.985 311.823 218.182C312.996 219.778 314.169 221.374 316.124 221.374C316.124 222.571 316.907 222.97 318.08 223.369C318.08 225.364 319.253 226.561 321.208 226.561C326.291 234.142 333.721 239.329 339.978 245.314C359.921 266.86 381.037 287.609 402.544 307.958C403.326 308.357 403.717 308.756 404.108 309.155H404.499C404.499 309.155 405.281 310.751 405.672 311.15H406.063C406.063 311.15 406.845 312.347 407.627 312.746H408.018C408.018 312.746 409.974 315.14 411.147 315.938L412.711 317.933C413.884 319.13 415.057 319.928 416.23 320.726V321.524C417.403 323.519 418.967 325.115 421.314 326.312H422.096C422.096 326.312 423.66 327.509 424.442 328.307C424.442 330.302 425.615 331.499 427.961 331.499C440.084 347.459 455.334 360.626 470.193 374.192C472.54 377.384 475.277 380.178 478.405 382.572C479.187 382.971 479.578 383.769 479.969 384.168C480.752 384.567 481.142 385.365 481.925 385.764C484.271 388.158 486.617 390.153 488.572 392.547C489.354 392.946 489.745 393.744 490.527 394.143C492.092 396.936 494.047 399.729 497.175 400.926C498.739 402.522 500.694 404.517 502.259 406.113C502.65 406.512 503.432 407.31 503.823 407.709C505.778 410.502 507.733 412.896 510.861 414.492C519.464 424.068 528.458 433.245 538.234 441.624C539.798 444.417 541.753 446.013 544.491 447.609C544.491 447.609 544.751 447.875 545.273 448.407C545.664 450.801 544.491 452.397 542.927 453.993C537.061 461.574 531.195 469.554 525.33 477.135L524.157 478.332C515.163 489.904 507.342 502.273 502.259 515.839C500.694 516.637 499.13 517.435 497.957 515.839C489.745 509.056 479.969 507.061 470.193 504.268C463.155 499.879 454.943 497.086 447.122 494.293C430.699 488.307 414.275 481.923 398.242 475.14C386.511 470.751 375.562 464.766 363.049 462.372C340.76 451.2 317.689 442.422 294.226 434.442H293.835C292.271 432.048 289.925 431.25 287.579 431.25C287.188 431.25 286.797 431.25 286.406 431.25C284.45 430.851 282.886 430.452 280.931 430.053C280.149 429.654 279.758 429.255 278.976 429.255C278.585 429.255 278.194 428.457 277.412 428.457C276.239 426.861 274.283 426.861 272.328 426.462C272.328 426.462 271.937 425.664 271.546 425.265C271.546 423.669 271.937 422.073 271.937 420.078C271.937 343.469 271.937 266.86 271.546 189.853C271.546 187.459 270.764 184.267 273.501 181.873V181.474ZM98.7074 608.408C146.023 560.926 193.339 513.445 240.263 465.963C247.302 459.18 254.732 452.397 260.988 444.816C264.116 441.624 266.072 442.023 269.591 443.22C278.976 446.412 287.579 452.397 297.746 453.195C312.605 461.574 328.638 467.16 345.061 472.347C356.792 478.332 369.306 483.12 382.21 487.111C382.992 487.51 383.774 488.307 384.165 488.707H385.338C419.359 502.273 453.379 515.839 487.008 529.405C488.963 530.203 491.309 531.001 493.265 531.799C493.265 532.597 493.265 533.395 492.874 534.193C485.053 558.931 478.405 584.068 477.623 610.403C477.623 616.388 472.931 616.388 468.629 616.388C465.11 615.989 461.982 615.989 458.462 615.989H313.387C273.11 615.989 232.833 616.388 192.556 616.388C178.479 615.989 163.62 613.994 149.933 615.989C131.164 619.181 113.176 614.792 94.797 615.989C93.2328 611.999 96.7522 610.403 98.7074 608.408ZM112.003 678.632C105.355 678.632 100.272 677.036 95.188 671.45C84.239 659.081 71.7257 647.51 59.9946 635.54C59.2125 634.343 58.4305 633.146 57.6484 631.949C58.4305 631.949 59.2125 631.55 59.9946 631.151H64.296C95.5791 632.348 127.253 631.151 158.927 631.151C160.882 631.151 162.838 631.55 164.793 631.55H401.762C401.762 631.55 400.98 633.146 400.589 633.944C403.326 636.338 402.935 639.929 404.108 643.121C407.627 654.692 409.192 667.061 415.448 677.834C412.711 677.834 409.583 678.632 406.845 678.632H234.398C214.064 678.632 194.121 678.632 173.787 679.031C153.062 678.632 132.728 678.233 112.003 678.632ZM169.876 735.69C162.838 735.69 155.799 735.291 150.715 729.705C149.151 727.311 147.978 724.518 145.632 722.922C140.157 715.341 131.164 710.553 125.298 703.371C125.298 700.179 121.779 698.582 121.388 695.789H158.536C216.801 695.789 275.065 695.789 333.721 695.39C361.094 695.39 388.075 695.789 415.448 695.789C420.141 695.39 422.878 696.986 424.833 701.775C430.308 712.548 436.173 723.321 443.212 733.296C440.475 737.286 436.173 735.291 432.263 735.291C345.061 735.291 257.469 735.69 169.876 735.69ZM226.968 806.314C225.795 799.53 219.147 797.535 215.628 793.146C208.589 785.166 201.159 777.186 192.948 770.403C187.864 764.817 183.563 758.433 176.915 754.443C177.306 753.645 177.697 753.246 178.479 752.448C178.479 751.65 177.697 750.852 177.697 750.054L216.41 749.655C238.308 750.453 260.597 750.453 282.495 749.655C298.919 750.054 315.733 750.054 332.157 750.054C370.87 750.054 409.192 750.054 447.904 750.054C450.642 750.054 453.379 749.256 456.116 751.251C457.289 751.65 458.071 752.049 459.244 752.448C459.635 752.847 459.635 753.645 460.026 754.443C460.026 757.635 461.591 759.63 465.11 759.63C465.501 762.822 466.283 765.615 470.193 766.413C472.931 775.989 480.751 781.575 488.572 786.762C488.572 788.757 489.745 790.353 492.092 790.353C492.092 792.348 493.265 793.545 495.22 793.545C496.393 797.136 497.566 800.727 502.259 800.328V803.521C502.259 803.521 501.868 804.318 502.259 804.717C482.316 805.117 462.373 805.516 442.821 805.914C436.564 805.516 430.308 805.516 424.051 805.516C358.357 805.516 292.662 805.516 226.968 805.914V806.314ZM1179.93 1224.47C1179.93 1224.47 1179.54 1224.87 1179.93 1225.27C1178.36 1226.07 1178.36 1227.26 1179.93 1228.46C1179.54 1228.46 1179.54 1228.86 1179.93 1229.26C1178.75 1268.36 1178.36 1307.46 1178.36 1346.56C1175.63 1363.32 1172.89 1379.68 1169.76 1396.44C1167.81 1404.42 1165.46 1412.8 1163.5 1420.78C1163.11 1422.38 1163.11 1423.57 1163.11 1425.17C1160.38 1432.75 1156.47 1439.53 1155.68 1447.91C1154.12 1449.51 1154.12 1451.9 1154.51 1453.9C1149.82 1459.08 1148.25 1465.07 1146.3 1471.45C1143.95 1473.45 1142.39 1475.84 1143.17 1478.63C1134.57 1499.78 1123.23 1519.33 1112.28 1538.88C1105.24 1550.46 1095.07 1560.03 1090.38 1573.2C1085.69 1574.79 1084.91 1579.18 1082.17 1582.38C1067.31 1598.73 1052.84 1615.49 1037.98 1632.25C1028.2 1638.64 1019.21 1646.62 1010.61 1654.2C1010.22 1654.6 1009.43 1654.2 1009.04 1654.6C988.319 1673.75 963.683 1687.71 939.83 1702.08C929.663 1704.07 921.451 1710.06 912.457 1715.24C911.284 1715.24 910.111 1715.24 909.329 1715.24C886.649 1728.01 861.231 1732.4 837.378 1741.18C829.557 1743.97 820.955 1743.57 813.134 1747.16C807.659 1745.97 802.576 1748.36 797.492 1748.76C786.934 1749.96 776.376 1752.35 765.818 1753.95C762.69 1753.15 758.388 1755.94 757.215 1750.76V1748.76C757.215 1717.24 757.215 1685.32 757.215 1653.4V1501.78C774.03 1498.98 791.236 1498.58 807.659 1494.59C825.647 1489.81 844.026 1485.42 859.667 1474.64C859.667 1474.25 860.058 1473.85 860.058 1473.45C868.661 1471.85 876.091 1468.26 881.174 1460.68C881.565 1460.68 881.956 1459.88 882.347 1459.48C894.079 1455.09 903.073 1447.11 908.156 1435.14C908.547 1435.54 908.938 1435.14 909.329 1434.74H910.111V1433.95L910.893 1433.15C913.631 1433.15 913.631 1430.75 912.848 1428.36C913.24 1428.36 913.631 1428.36 914.022 1428.36C919.887 1424.37 922.624 1419.18 923.406 1412C923.798 1412.4 924.189 1412 924.58 1412C926.926 1410.01 927.317 1406.42 928.49 1404.02C936.311 1383.67 939.048 1362.92 941.394 1341.38C944.131 1315.04 942.567 1288.31 942.176 1261.58V1087.21C942.567 1076.84 942.567 1066.46 942.567 1056.09C942.567 1054.49 944.132 1050.5 939.439 1052.9C935.92 1052.9 932.009 1053.3 928.099 1053.3C926.926 1050.9 924.971 1051.7 923.015 1051.7H876.873C876.873 1051.7 872.963 1050.5 871.789 1053.3C870.225 1054.49 869.834 1055.69 869.834 1056.89C869.834 1058.48 870.616 1060.08 870.616 1061.68C870.225 1145.07 870.225 1228.46 870.225 1311.45C870.225 1319.83 869.443 1328.21 868.661 1336.59C868.27 1344.57 865.533 1352.15 867.097 1360.13C862.796 1362.92 869.443 1368.11 865.142 1370.9C860.84 1379.28 857.321 1388.06 855.366 1397.24C854.975 1397.64 854.975 1398.04 854.975 1398.44C854.975 1398.44 854.193 1399.63 853.802 1400.03C853.02 1401.63 852.238 1403.22 851.847 1404.82C850.673 1405.62 849.891 1406.42 849.109 1407.21C848.718 1407.21 848.327 1407.61 848.327 1408.41C847.154 1408.41 846.372 1409.61 846.763 1411.2L841.289 1417.19C840.506 1417.19 839.724 1417.99 839.724 1418.78C837.378 1419.98 835.814 1421.98 834.25 1423.97C830.73 1426.37 826.82 1429.16 823.301 1431.15C798.274 1445.12 771.684 1450.7 743.529 1451.5H706.38C702.861 1450.7 699.733 1450.31 696.213 1449.91C682.527 1447.91 668.841 1445.12 655.937 1441.13C654.372 1441.13 653.199 1440.33 652.026 1439.93C649.289 1439.13 646.552 1438.34 643.814 1437.14C642.641 1435.54 641.859 1434.74 640.295 1434.35C614.878 1422.38 597.281 1404.02 590.242 1376.89C584.768 1356.54 582.812 1336.19 582.421 1315.44C582.03 1279.53 582.421 1243.22 582.03 1207.31C582.421 1202.92 582.812 1198.14 582.03 1193.75V1180.18C582.812 1174.59 582.812 1169.01 582.03 1163.02C582.03 1127.11 582.421 1091.2 582.421 1055.29C582.421 1054.49 581.639 1053.7 581.248 1053.3C565.998 1053.3 550.747 1053.7 535.497 1053.7C531.977 1053.7 528.458 1053.3 524.939 1053.3H511.643C508.515 1055.29 510.079 1058.48 510.079 1060.88V1320.63C510.079 1323.42 508.906 1326.22 511.643 1328.61C510.861 1333 511.643 1337.79 512.035 1342.57C513.99 1371.3 519.073 1399.63 534.324 1424.77C541.362 1436.74 549.574 1449.11 562.478 1456.29C573.819 1468.26 589.069 1474.64 603.537 1481.03C609.012 1484.62 615.269 1486.22 621.134 1488.61C644.596 1496.99 669.623 1498.19 693.867 1502.18C694.649 1502.97 695.431 1503.77 696.213 1504.57V1698.49C696.213 1716.44 696.213 1734.4 696.213 1752.75C693.867 1755.14 691.13 1754.35 688.002 1754.75C686.828 1754.35 685.264 1754.35 683.7 1754.35C673.142 1749.96 662.193 1749.16 651.244 1749.16C645.77 1748.36 640.686 1747.16 635.211 1745.97C617.224 1740.78 599.236 1735.99 581.248 1730.81H580.466C580.466 1730.81 578.511 1728.81 576.556 1729.21C576.165 1728.81 575.383 1728.81 574.992 1728.81C569.126 1725.62 562.869 1723.22 556.222 1722.43C554.658 1721.63 553.094 1720.83 551.529 1720.43C550.747 1719.63 550.356 1719.23 549.574 1718.84C546.837 1717.24 544.491 1715.24 541.362 1715.24C528.849 1708.86 516.336 1702.87 504.214 1696.49C503.432 1696.09 502.65 1695.69 502.259 1694.89H501.476C490.527 1687.71 479.969 1680.53 468.629 1674.55C453.379 1660.98 436.173 1650.21 421.314 1636.24C420.141 1635.04 417.794 1634.65 416.23 1633.85C415.839 1628.66 410.756 1626.67 407.627 1623.07C401.762 1617.09 395.505 1611.1 389.249 1605.12C387.684 1600.33 383.774 1597.54 380.646 1594.35L379.473 1593.15C379.473 1593.15 378.3 1592.35 377.517 1591.55C372.825 1583.57 366.959 1576.39 361.485 1569.21C339.196 1540.08 321.599 1508.16 307.131 1474.64C305.957 1473.45 306.74 1470.65 304.393 1469.86C304.393 1469.46 304.393 1468.66 304.002 1467.86C304.393 1467.06 303.611 1466.27 302.829 1466.27C302.438 1466.27 302.438 1465.07 302.438 1464.67C300.483 1457.09 298.137 1449.51 294.226 1442.72C292.662 1435.14 291.098 1427.56 287.188 1420.78V1417.19C287.188 1417.19 286.797 1414.79 285.232 1414C285.232 1412.8 285.232 1411.6 285.624 1410.41C284.45 1402.43 281.713 1394.84 280.149 1387.26C278.976 1379.68 278.976 1372.1 275.066 1364.92V1361.33C275.848 1358.14 276.239 1355.34 273.892 1352.95V1346.17C274.283 1342.57 273.892 1338.98 271.937 1336.19V1329.01C271.937 1325.82 272.328 1322.23 272.328 1319.03C272.328 1263.17 271.937 1207.71 271.937 1152.25C271.546 1069.66 271.546 987.461 271.155 904.867C271.155 901.675 271.937 898.483 269.982 895.69C270.373 887.311 271.155 878.533 269.591 870.154C269.982 854.992 270.373 839.83 270.764 824.668C280.149 824.668 289.925 824.668 299.31 824.269C321.208 823.87 343.106 825.466 365.004 823.471C377.517 823.471 390.031 824.668 402.153 821.077C409.192 821.476 415.839 821.875 422.878 820.678C429.134 821.077 435.391 821.077 442.039 821.077H524.548C529.24 822.274 533.933 822.274 538.625 821.077H544.491C544.491 821.077 547.619 822.673 548.01 822.274C548.01 819.88 546.055 820.279 544.491 819.88C542.535 813.496 535.888 810.703 531.195 806.713C512.035 789.555 494.438 770.403 477.232 751.251C476.841 750.453 476.45 749.256 475.668 748.458C449.859 716.937 431.481 681.425 421.705 641.924C419.358 632.348 420.532 630.752 430.308 630.752C445.167 630.752 460.026 631.949 474.886 630.752C477.623 632.747 478.405 635.939 478.405 639.53C479.187 647.111 480.36 654.692 481.143 662.672C481.143 663.47 481.142 664.667 481.925 665.864C482.316 667.859 481.143 670.652 483.098 672.647C483.489 673.844 483.489 674.642 483.88 675.839C483.88 676.238 483.88 676.637 483.88 677.036C485.444 682.622 486.617 687.809 488.181 692.996C488.572 694.593 488.181 696.588 490.136 697.785C495.611 719.331 504.214 739.281 517.509 756.837C518.291 757.635 518.682 758.433 519.073 758.832C527.676 775.191 539.798 788.358 553.094 801.126C556.222 803.919 558.568 807.91 562.869 809.905C565.607 813.496 569.126 816.289 573.036 818.284C574.601 821.077 576.947 822.673 579.684 823.471C581.248 825.865 583.594 827.86 586.723 828.259C589.46 830.254 591.415 833.047 594.935 833.446C595.717 833.845 596.499 834.244 597.281 835.042C597.281 835.84 597.672 836.239 598.454 835.84C599.236 836.239 599.627 836.239 600.409 836.638C603.928 839.431 607.448 842.623 612.14 842.623H612.922C616.833 847.411 621.525 849.805 627.391 849.805C650.853 862.972 676.271 868.558 702.079 869.755C729.843 870.952 758.388 872.149 785.37 863.371C797.101 859.78 809.223 858.583 818.999 851.002C819.781 850.603 820.563 849.805 821.737 849.406C835.032 841.825 848.718 834.244 862.014 826.264C863.969 825.466 865.924 824.269 867.879 823.471C868.27 823.471 868.661 823.072 868.661 822.673C874.136 821.476 878.437 818.284 881.174 813.097C886.258 811.102 890.559 807.511 894.47 803.521C916.759 781.974 934.747 757.236 948.042 729.306C960.555 702.972 968.767 675.041 970.331 645.914C970.722 633.146 971.113 633.146 984.408 630.752C988.71 630.752 993.011 630.752 996.922 630.353C1002.01 631.949 1006.7 631.949 1011.39 630.353H1026.64C1034.46 631.151 1033.68 636.338 1032.11 641.525C1027.81 654.692 1023.51 667.859 1019.6 681.026C1016.47 687.011 1013.35 693.395 1010.22 699.38C1001.61 713.745 992.229 727.311 982.453 740.877C971.504 755.241 958.209 768.009 946.478 781.974C946.087 782.772 945.696 783.57 944.914 784.368H944.523C939.83 785.964 937.093 790.752 933.182 794.343C923.406 802.323 914.022 811.102 904.637 819.88C905.81 825.466 910.502 823.072 913.631 823.072C948.433 823.072 983.235 821.875 1018.04 821.875C1068.48 822.673 1118.53 823.87 1168.98 824.668C1171.72 824.668 1174.45 825.865 1176.8 823.072C1177.58 823.87 1177.97 824.269 1178.75 824.668V936.788C1178.75 939.98 1178.75 943.172 1178.36 946.763V953.546C1178.36 1009.41 1178.36 1065.67 1178.75 1121.53C1179.15 1141.48 1177.97 1161.03 1179.93 1180.58V1224.87V1224.47ZM1181.88 1261.98C1181.88 1261.98 1182.66 1261.58 1183.06 1261.98H1181.88ZM1220.2 805.516H1064.57C1055.97 803.521 1046.97 804.717 1038.37 804.717C1011.39 804.717 984.408 803.52 957.427 804.717C954.298 804.717 951.17 804.718 947.651 803.92C949.997 797.935 956.645 794.742 958.6 788.757H958.991C958.991 788.757 962.119 787.161 962.51 785.166C963.292 784.767 963.683 783.969 964.074 783.57C964.465 782.772 964.857 782.373 965.248 781.974H965.639C975.415 775.989 982.453 767.211 988.71 758.832C992.62 753.645 995.749 752.448 1001.22 752.448H1272.21C1272.21 752.448 1272.6 753.246 1272.99 753.645L1220.2 805.117V805.516ZM1305.45 724.119C1293.72 737.685 1278.86 737.286 1263.22 736.887C1244.45 736.488 1225.68 736.887 1206.91 736.887H1188.53C1188.53 736.887 1187.75 736.488 1186.97 736.887H1174.84C1174.84 736.887 1174.06 736.887 1173.28 737.286H1133C1106.8 736.488 1080.99 736.488 1054.8 737.286C1041.11 737.286 1027.42 736.887 1013.74 736.887C1007.87 736.887 1005.92 735.291 1009.83 730.104C1016.08 722.124 1020.77 713.346 1025.08 704.169C1027.81 698.583 1031.72 697.385 1037.59 697.385H1145.52C1207.3 696.987 1269.08 696.987 1330.48 696.588C1323.83 707.361 1313.66 714.942 1305.45 724.119ZM1386 643.919C1375.45 653.894 1365.28 664.268 1355.11 674.642C1351.2 678.632 1346.9 679.031 1341.82 679.031H1203.39C1203.39 679.031 1201.04 679.031 1199.87 679.43C1196.74 679.031 1193.22 679.031 1190.09 679.031H1037.98C1037.2 674.243 1042.67 672.647 1043.06 668.657C1043.06 656.288 1049.32 645.515 1053.62 634.742H1389.91C1389.91 634.742 1390.31 637.136 1390.31 638.333C1389.91 641.126 1387.96 642.323 1386 643.919ZM1232.72 1153.05V1180.18H1233.11C1232.72 1171 1232.72 1162.22 1232.72 1153.05ZM1105.63 1642.63H1106.02C1106.02 1642.63 1105.63 1641.83 1105.63 1642.63Z" fill="white" fill-opacity="0.04"/>
<path d="M908.938 924.419C908.938 921.227 906.983 920.828 904.637 921.227H767.773C750.568 920.828 732.971 920.828 715.374 920.828H545.664C539.798 920.828 537.843 922.424 538.234 928.409C538.625 939.581 539.407 950.354 538.625 961.526C538.234 969.506 540.189 971.9 548.792 971.9C596.89 971.501 644.987 971.9 693.085 971.9C693.476 1022.97 693.476 1074.44 693.476 1125.52C693.476 1127.51 693.085 1129.11 693.085 1130.7V1353.75C693.085 1356.54 693.476 1358.93 693.867 1361.33C696.604 1362.92 699.342 1362.13 702.079 1362.13C716.547 1362.13 730.625 1361.33 745.093 1362.52C752.914 1363.32 755.26 1361.33 755.26 1353.75C755.26 1250.01 755.26 1146.26 755.26 1042.52C755.26 1018.98 754.478 995.042 756.433 971.501C804.922 971.501 853.802 971.501 902.681 971.9C904.246 971.9 906.201 971.9 907.765 971.501C910.111 970.703 908.156 969.107 908.156 967.91C910.502 953.546 908.547 938.783 909.329 924.419H908.938Z" fill="white" fill-opacity="0.04"/>
<path d="M908.938 924.419C908.156 938.783 910.111 953.546 907.765 967.91C907.765 969.107 909.72 970.703 907.374 971.501C905.81 971.9 903.855 971.9 902.29 971.9C853.411 971.501 804.531 971.501 756.042 971.501C754.087 995.042 754.869 1018.98 754.869 1042.52C754.869 1146.26 754.869 1250.01 754.869 1353.75C754.869 1361.33 752.523 1363.32 744.702 1362.52C730.234 1361.33 716.156 1362.13 701.688 1362.13C698.951 1362.13 696.213 1362.92 693.476 1361.33C693.085 1358.93 692.694 1356.54 692.694 1353.75V1130.7C692.694 1130.7 693.085 1127.51 693.085 1125.52C693.085 1074.44 693.085 1022.97 692.694 971.9C644.596 971.9 596.499 971.501 548.401 971.9C539.798 971.9 537.843 969.506 538.234 961.526C539.016 950.354 538.234 939.581 537.843 928.409C537.452 922.424 539.407 920.828 545.273 920.828H714.983C732.58 920.828 750.177 920.828 767.382 921.227H904.246C906.592 920.828 908.547 921.227 908.547 924.419H908.938Z" fill="white" fill-opacity="0.04"/>
</svg>
