<svg width="279" height="369" viewBox="0 0 279 369" fill="none" xmlns="http://www.w3.org/2000/svg">
<path d="M278.473 139.271C278.247 138.503 277.87 137.964 277.116 137.734C277.041 137.58 276.89 137.503 276.815 137.349C276.136 137.349 275.759 137.042 275.835 136.427C275.684 136.273 275.608 136.119 275.458 136.042L274.553 135.12C274.553 135.12 274.327 134.889 274.176 134.735C273.497 134.735 273.196 134.428 273.196 133.736C272.743 133.351 272.366 132.89 271.914 132.506C271.537 131.583 270.632 131.199 269.954 130.507C269.803 130.43 269.727 130.276 269.652 130.199C267.616 127.662 265.128 125.586 263.017 123.203C261.585 121.665 259.775 120.435 258.493 118.667C257.588 117.513 256.608 116.36 255.251 115.591C255.1 115.437 254.874 115.284 254.648 115.207C254.723 114.438 253.969 114.515 253.668 114.207C253.743 113.669 253.442 113.438 253.065 113.208C252.914 112.823 252.612 112.9 252.311 112.9C252.688 111.516 251.255 111.67 250.727 111.055C249.446 109.517 247.938 108.133 246.505 106.673C246.43 106.519 246.354 106.365 246.128 106.365H245.826C245.374 105.519 244.62 104.981 243.866 104.443C242.961 103.213 242.132 102.06 240.85 101.137C239.946 100.522 238.965 99.6762 238.588 98.523C238.588 80.6859 238.664 62.772 238.664 44.8581C238.664 44.3199 238.513 43.7048 238.739 43.2435C239.192 42.3209 238.815 41.629 238.287 40.937C238.211 40.8601 238.136 40.7833 238.061 40.7833C237.759 40.322 237.307 40.4757 236.854 40.4757H179.703C179.703 40.4757 179.326 40.0913 179.251 39.7838C179.175 39.7838 179.1 39.5531 178.949 39.4762H179.025C179.025 38.938 178.874 38.7074 178.346 38.7843C178.346 38.6305 178.195 38.4767 177.969 38.4767C177.894 38.323 177.818 38.2461 177.668 38.1692C177.215 37.3235 176.612 36.6315 175.707 36.1702C175.481 35.3245 174.953 34.7863 174.124 34.5557C173.973 34.4788 173.898 34.4019 173.822 34.2481C173.822 33.5562 173.445 33.2487 172.767 33.2487C172.691 33.1718 172.541 33.018 172.465 32.9411C172.239 31.8647 171.334 31.4803 170.505 30.9421C170.052 30.3271 169.751 29.5582 168.846 29.3276L168.544 29.02V28.8663C168.544 28.2512 168.167 28.0206 167.564 28.0206C167.489 27.9437 167.338 27.7899 167.263 27.713C166.207 26.406 165.152 25.099 163.644 24.0995C163.719 23.4075 163.417 23.1 162.663 23.1C161.306 21.6392 160.1 20.0246 158.441 18.8714V18.7176C158.441 18.1026 158.064 17.8719 157.461 17.8719C157.31 17.795 157.235 17.7181 157.16 17.5644C156.783 17.2568 156.481 16.8724 156.179 16.488C154.294 14.1815 151.806 12.49 149.695 10.4142C149.846 9.56846 148.941 9.41469 148.564 9.03027C145.775 6.03181 142.985 2.95645 139.894 0.265524C139.366 -0.349546 139.14 0.265524 138.913 0.496175C136.275 3.03334 133.636 5.5705 131.072 8.10767C127.001 12.1825 123.155 16.4111 119.009 20.3322C116.973 22.2543 115.163 24.3301 113.128 26.1753C111.469 27.713 110.187 29.4813 108.528 30.9421C108.001 30.8653 107.85 31.1728 107.85 31.6341C106.87 31.711 106.794 32.7105 106.266 33.3255C104.457 34.6326 103.1 36.4778 101.366 37.8617C100.009 38.938 99.1791 40.4757 96.9926 40.4757C79.0481 40.3988 61.0282 40.4757 43.0837 40.4757C42.5559 40.7064 42.0281 40.937 41.425 40.6295C40.8218 40.322 41.1988 40.937 41.048 41.0908C40.4448 41.5521 40.7464 42.1672 40.7464 42.7822V96.9084C40.7464 97.4466 40.8218 97.9848 40.8218 98.5998C40.8972 99.5993 39.6908 98.9843 39.4646 99.6762C38.8615 101.291 37.5043 102.29 36.298 103.444C34.5638 105.135 32.6035 106.673 31.0202 108.441C28.7583 110.901 26.2702 113.131 24.0082 115.591C21.294 118.436 18.3535 121.127 15.7146 124.048C13.2265 126.893 10.4368 129.43 7.79787 132.121C5.38516 134.505 3.04785 136.888 0.635145 139.348C-0.646606 140.04 0.333556 140.501 0.785939 140.963C6.74231 146.883 12.6233 152.803 18.5797 158.723C18.6551 158.8 18.7304 158.877 18.8058 158.954C18.9566 159.03 19.1074 159.184 19.1828 159.261C19.3336 159.415 19.409 159.569 19.5598 159.722C20.163 160.337 20.8416 160.953 21.4447 161.568C21.7463 161.952 21.9725 162.26 22.4249 162.567C22.8773 162.952 23.3297 163.413 23.7821 163.874C25.8932 166.027 27.9289 168.18 30.1154 170.332C30.9448 171.101 31.6234 172.254 32.8297 172.716C32.6789 173.1 32.9805 173.1 33.2067 173.254C33.9607 173.562 33.8853 174.715 34.79 174.945C34.9408 175.022 35.0162 175.176 35.167 175.253C35.6194 175.714 35.6194 176.56 36.4488 176.56C36.298 177.406 37.1273 177.175 37.4289 177.483C38.6353 178.251 39.1631 179.635 40.3694 180.481C40.5202 180.865 40.2186 181.481 40.671 181.788C40.7464 182.096 40.7464 182.48 40.8218 182.788C40.8218 182.941 40.7464 183.095 40.7464 183.249V272.05C40.7464 272.05 40.5202 272.972 41.048 273.203C40.8972 278.354 41.425 283.351 42.4051 288.426C42.9329 291.347 43.7623 294.192 44.667 297.037C48.4369 310.261 54.4687 322.255 63.5917 332.557C64.3457 334.095 65.7028 335.171 66.7584 336.478C66.7584 336.939 66.9846 337.324 67.437 337.478C67.6632 337.708 67.8894 337.939 68.1155 338.17C68.1909 338.246 68.3417 338.323 68.4171 338.477C68.9449 338.862 68.8695 339.784 69.7743 339.784C70.0005 339.861 70.2267 340.015 70.4529 340.169C70.5283 340.322 70.679 340.399 70.7544 340.553C70.8298 341.322 71.5084 341.629 72.0362 342.014C72.0362 342.244 72.0362 342.398 72.3378 342.398C72.3378 342.552 72.4886 342.706 72.6394 342.706C72.6394 342.936 72.7902 343.013 73.0164 343.013C73.0918 343.167 73.2425 343.244 73.3179 343.321C73.3933 343.628 73.5441 343.705 73.8457 343.628C75.1275 344.705 76.4092 345.858 77.7664 346.857C80.5561 349.01 83.2704 351.317 86.3616 353.085C88.3974 354.315 90.2823 355.853 92.5442 356.699C92.695 356.852 92.7704 356.929 92.8458 357.083C93.5998 358.082 94.6553 358.39 95.8617 358.39L96.1633 358.698C96.1633 358.698 96.3895 359.005 96.5403 359.005H96.7664C96.7664 359.005 97.068 359.313 97.2942 359.313C97.445 359.62 97.822 359.697 98.1236 359.697C98.1236 359.928 98.3498 360.005 98.576 360.005C98.8022 360.312 99.1038 360.312 99.4053 360.312C99.9331 361.081 100.687 360.927 101.366 361.004C103.854 362.234 106.493 363.157 109.132 363.926C110.112 364.541 111.243 364.925 112.449 364.925C112.524 365.386 112.901 365.156 113.203 365.156H113.278C114.334 365.694 115.314 366.386 116.596 366.078C116.973 366.078 117.274 366.155 117.576 366.155C118.858 367.155 120.366 367.078 121.874 367.155C122.1 367.462 122.175 367.847 122.703 367.847C123.909 367.924 125.191 368.001 126.397 368.077C127.83 368.001 129.263 368.692 130.771 368.385C132.957 369.077 135.294 368.769 137.556 369C139.29 368.692 141.025 369 142.759 368.923C143.739 368.616 144.794 368.769 145.775 368.923C148.79 369.154 151.656 368.385 154.521 367.924C157.235 367.77 159.798 367.155 162.287 366.232C163.719 366.309 165.152 366.078 166.358 365.31H166.509C166.509 365.31 167.338 365.386 167.564 365.002C168.394 365.079 169.148 364.848 169.826 364.31C170.58 363.695 171.937 364.541 172.465 363.311C173.144 363.234 174.048 363.618 174.425 362.695C176.084 362.004 177.743 361.312 179.402 360.62C185.433 358.082 191.013 354.93 196.366 351.163C199.08 349.318 201.493 347.088 204.057 345.089C204.584 345.089 204.886 344.859 205.037 344.397C205.187 344.32 205.263 344.167 205.338 344.09C205.489 343.936 205.64 343.859 205.715 343.705C205.791 343.628 205.941 343.551 206.017 343.398C206.695 343.475 207.072 343.013 207.223 342.475C207.223 341.937 207.6 341.706 207.977 341.399C209.108 340.63 210.164 339.707 210.918 338.477C210.993 338.4 211.144 338.246 211.219 338.17C212.199 338.016 212.727 337.478 212.878 336.555C213.029 336.478 213.104 336.324 213.18 336.247H213.255C213.255 336.247 213.406 336.017 213.557 335.863C213.632 335.863 213.783 335.709 213.858 335.632C214.311 335.632 214.537 335.479 214.537 335.094C214.537 335.017 214.461 334.94 214.461 334.787C214.537 334.787 214.537 334.71 214.461 334.633C214.763 334.71 214.838 334.633 214.688 334.402C216.572 332.403 218.231 330.327 219.739 328.098C219.814 327.944 219.965 327.867 220.041 327.79C220.87 327.329 221.322 326.714 221.398 325.791C222.227 325.407 222.529 324.715 222.604 323.869C223.132 323.023 223.735 322.255 224.188 321.409C225.318 319.41 226.676 317.488 227.505 315.335C228.711 314.028 229.541 312.49 229.842 310.799C230.069 310.799 230.069 310.799 230.069 310.568C230.069 309.108 231.652 308.339 231.426 306.801C231.727 306.801 232.029 306.955 232.104 306.57C232.33 305.571 232.557 304.571 232.783 303.572C233.16 302.496 233.612 301.419 233.914 300.266C234.969 296.729 236.477 293.346 236.628 289.579C237.231 288.349 237.457 287.042 237.684 285.735C238.061 283.582 238.211 281.353 238.362 279.2C238.664 275.971 238.815 272.742 238.815 269.589C238.89 268.052 238.588 266.437 238.588 264.899V234.069C238.588 234.069 238.664 233.838 238.739 233.761C238.664 233.685 238.588 233.608 238.588 233.531C238.89 229.379 238.664 225.304 238.664 221.153C238.664 217.923 238.89 214.694 238.588 211.465C238.588 211.388 238.664 211.311 238.739 211.235C238.664 211.081 238.664 211.004 238.588 210.927V184.479C238.588 184.479 238.664 184.325 238.588 184.248C238.965 184.095 239.041 183.864 238.588 183.633C238.664 183.633 238.664 183.556 238.588 183.48C238.513 182.403 238.965 181.327 238.664 180.25C240.323 180.174 240.85 178.636 241.906 177.79C242.358 177.329 242.735 176.791 243.188 176.329C243.64 176.099 243.942 175.791 244.168 175.33C244.319 175.253 244.469 175.099 244.545 175.022C245.525 174.023 246.505 173.023 247.485 171.947C248.993 170.332 250.576 168.718 252.311 167.257C252.461 167.103 252.537 167.026 252.688 166.873C253.065 166.642 253.442 166.334 253.668 165.873C254.196 165.412 254.95 165.181 254.874 164.259C255.251 163.951 255.854 163.874 256.231 163.413C257.89 161.337 259.85 159.492 261.811 157.57C261.961 157.57 262.338 157.416 262.188 157.108C262.489 157.262 262.565 156.955 262.715 156.724C262.866 156.647 262.942 156.493 263.092 156.416C263.545 156.186 263.846 155.878 264.073 155.417C264.6 155.494 264.827 155.263 264.751 154.725L265.053 154.417C265.053 154.417 265.581 154.11 265.731 153.802C265.807 153.649 265.958 153.572 266.033 153.495C266.108 153.341 266.259 153.264 266.41 153.11C266.485 153.034 266.561 152.88 266.711 152.803C267.541 153.034 267.767 152.495 267.767 151.803C267.842 151.803 267.918 151.65 267.993 151.573C268.37 151.496 268.747 151.419 268.672 150.881C268.898 150.881 268.973 150.727 268.973 150.496C269.124 150.419 269.2 150.343 269.275 150.189C269.426 150.112 269.501 149.958 269.652 149.881C269.803 149.881 269.954 149.728 269.954 149.574C270.104 149.42 270.18 149.343 270.255 149.189C270.481 149.189 270.632 149.112 270.632 148.882C270.708 148.728 270.783 148.651 270.858 148.574C271.688 148.267 271.914 147.344 272.517 146.806C274.854 144.961 276.664 142.731 278.7 140.578C279.227 140.04 279.001 139.656 278.473 139.348V139.271ZM257.287 133.351C257.287 133.351 257.362 132.813 257.287 132.659C257.438 132.813 257.588 133.121 257.287 133.351ZM229.993 106.519C232.783 109.133 235.497 111.901 238.287 114.669C241.981 118.359 245.6 121.973 249.295 125.663C251.029 127.431 252.763 129.123 254.497 130.891C255.327 131.814 256.156 132.813 257.211 133.505C258.569 135.043 260.001 136.504 261.434 138.041V138.349C261.434 138.349 261.207 138.349 261.132 138.426H207.977C205.338 138.81 202.775 138.81 200.136 138.426C196.969 138.426 193.727 138.426 190.56 138.349C190.183 138.349 189.656 138.195 189.354 138.656C188.751 138.579 188.148 138.426 187.469 138.349C187.168 133.813 186.338 129.43 185.207 125.048C184.981 124.279 183.925 123.971 184.227 123.049C184.604 122.28 184.83 121.665 185.81 121.511C186.414 121.511 187.017 121.05 187.318 120.435C187.62 120.435 187.922 120.973 188.072 120.281C188.148 120.281 188.299 120.358 188.374 120.281C189.505 119.974 190.787 120.05 191.465 118.82C191.767 118.743 192.219 119.358 192.295 118.59C193.199 118.59 194.104 118.436 194.707 117.513C194.858 117.59 195.084 117.59 195.235 117.667C195.386 117.667 195.461 117.744 195.537 117.744C202.021 114.899 208.731 112.516 215.291 109.902C218.608 108.595 222.001 107.441 225.168 105.673C226.148 104.981 227.354 104.981 228.41 104.751C229.013 104.597 229.39 105.904 229.993 106.519ZM256.005 138.81C254.799 138.656 253.592 138.81 252.386 138.887C253.668 138.656 254.874 138.579 256.005 138.81ZM227.203 55.9294C227.43 64.4635 226.826 72.9976 227.279 81.5316C227.203 88.2974 227.203 95.0632 227.203 101.752C227.128 101.906 226.977 101.983 226.902 102.136C226.676 102.213 226.525 102.367 226.299 102.444C226.072 102.521 225.846 102.521 225.695 102.598C222.378 103.828 219.136 105.135 215.894 106.442C213.632 107.134 211.445 108.21 209.184 108.979C206.922 109.825 204.584 110.671 202.473 111.901C199.306 112.746 196.291 114.13 193.275 115.437C192.445 115.437 191.767 115.976 191.088 116.206C190.711 116.36 190.41 116.591 190.033 116.744C187.771 117.206 185.735 118.436 183.549 119.128C183.322 119.205 183.172 119.282 182.945 119.358C182.644 118.82 182.342 118.205 182.041 117.667C181.211 116.283 180.683 114.669 179.326 113.592C179.251 112.131 178.045 111.516 177.366 110.594C176.838 109.594 176.16 108.748 175.255 108.057C173.973 107.134 173.822 106.134 174.953 105.058C175.783 104.674 176.31 103.982 176.838 103.367C177.592 102.521 178.044 102.521 178.874 103.367C180.985 105.75 184.453 106.288 186.866 104.827C188.826 103.597 189.882 101.906 189.731 99.5224C189.58 97.139 188.299 95.6014 186.112 94.6019C186.941 93.1411 188.299 92.0647 189.505 90.8346C191.465 88.8356 193.727 87.221 195.537 85.1452C197.799 82.6849 200.211 80.3784 202.624 77.995C202.85 77.7644 203.076 77.5337 202.926 77.1493C203.152 77.2262 203.303 77.2262 203.303 76.9955H203.378C203.378 76.9955 203.604 76.3804 203.906 76.3036C204.283 76.1498 204.584 75.8423 204.735 75.4578C204.81 75.3041 204.961 75.1503 205.112 74.9965C205.187 74.9196 205.263 74.8428 205.338 74.7659C206.243 74.689 206.545 74.1508 206.695 73.382C206.922 73.1513 207.072 72.9976 207.299 72.8438C208.957 72.2287 209.937 70.9986 210.616 69.4609C210.767 69.384 210.842 69.3071 210.842 69.2302C211.973 69.1534 212.426 68.3845 212.727 67.4619H212.878C213.481 67.4619 213.632 67.0006 213.783 66.5393C217.477 63.9253 220.418 60.3886 223.66 57.2364C224.715 56.2369 225.695 55.1605 226.676 54.0841C227.656 54.4686 227.203 55.3143 227.203 55.9294ZM147.358 115.822C147.358 115.822 147.207 116.052 147.056 116.129C146.378 117.898 145.473 119.666 144.87 121.511C144.417 123.049 143.663 123.28 142.306 122.741C142.08 122.664 141.779 122.741 141.477 122.664C141.477 116.206 141.477 109.671 141.402 103.136C141.402 102.982 141.402 102.905 141.326 102.752C144.568 102.752 147.584 103.52 150.6 104.443C151.656 104.751 151.731 105.366 151.279 106.288C150.675 107.595 149.846 108.825 149.695 110.286C148.64 112.054 147.886 113.9 147.283 115.822H147.358ZM148.036 121.972C150.148 117.052 152.183 112.055 154.219 107.134C154.37 106.75 154.445 106.442 154.37 106.058C154.445 105.981 154.521 105.904 154.671 105.827H155.048C155.048 105.827 155.275 105.981 155.425 106.058C156.481 106.75 157.461 107.595 158.818 107.903C159.044 108.364 159.497 108.518 159.874 108.672C159.949 108.748 159.949 108.825 159.949 108.825H160.025C161.306 109.671 162.287 110.978 163.644 111.67C163.644 111.901 163.719 112.285 163.417 112.516C158.894 116.668 154.521 121.127 150.223 125.586C149.394 126.509 148.79 125.279 148.036 125.279C146.981 124.125 147.659 123.126 148.036 121.972ZM160.703 119.205C162.513 117.513 164.322 115.976 166.283 114.13C166.961 114.899 167.564 115.668 168.243 116.36C169.525 118.282 170.806 120.204 172.088 122.126C172.39 122.972 172.164 123.51 171.259 123.971C170.203 124.51 169.072 124.51 168.092 124.971C165.302 126.124 162.588 127.354 159.798 128.585C158.215 129.123 156.707 129.661 155.124 130.199C153.616 130.737 152.786 130.353 152.259 128.738C152.183 128.431 152.183 128.2 152.108 127.893C154.671 124.74 157.763 122.049 160.703 119.205ZM156.632 132.967C157.763 132.813 158.818 131.891 160.025 131.506C160.025 131.506 159.949 131.429 159.949 131.352C160.025 131.352 160.1 131.352 160.175 131.429C164.247 129.892 168.167 128.123 172.314 126.816C172.39 126.816 172.39 126.509 172.465 126.278C173.747 125.97 174.124 126.509 174.501 127.739C175.33 130.66 176.009 133.659 176.386 136.811C176.386 137.349 176.235 137.811 176.009 138.349C175.481 138.81 174.802 138.656 174.124 138.656C173.973 138.272 173.596 138.349 173.294 138.349C167.941 138.426 162.513 138.426 157.16 138.426C156.029 138.579 155.727 137.811 155.501 136.965C155.35 136.35 155.199 135.735 155.199 135.12C155.124 134.043 155.048 133.274 156.632 132.967ZM174.275 58.7741C175.33 56.3138 176.16 53.8535 177.592 51.547C178.195 52.3158 179.025 51.8545 179.703 51.8545H223.886C224.112 52.5465 223.509 52.7771 223.283 53.2384C221.624 54.7761 220.041 56.3907 218.382 58.0052C216.799 59.3891 215.366 60.8499 213.858 62.3876C207.977 68.3076 202.096 74.3046 196.064 80.1477C193.124 82.9156 190.334 85.8371 187.469 88.6818C187.243 88.6818 187.092 88.8356 187.092 89.0663C186.489 89.3738 186.037 89.7582 185.81 90.3733C184.227 91.8341 182.568 93.2949 180.985 94.7557C180.985 90.0657 183.322 86.9135 187.394 84.8376C187.997 84.4532 188.751 84.1457 188.374 83.3C187.997 82.3774 187.243 82.9924 186.715 83.2231C180.91 85.3758 175.858 90.2964 176.763 99.2149C175.632 100.368 174.501 101.598 173.37 102.752C173.219 102.905 173.068 102.982 172.918 103.136H172.842C172.842 103.136 172.465 103.136 172.465 103.444C171.937 103.982 171.485 104.135 170.731 103.52C168.394 101.521 166.056 99.5993 163.267 98.2154C161.759 97.5235 160.1 96.9084 159.044 95.6014C160.326 91.5265 162.437 87.8361 164.021 83.915C165.679 79.6096 167.414 75.381 169.298 71.1523C171.108 67.0775 172.541 62.8489 174.275 58.7741ZM141.025 26.406C141.025 25.9447 141.025 25.5603 141.1 25.099C141.025 23.4844 142.005 21.8699 141.025 20.2553V19.6402C141.175 19.1789 141.326 18.7176 141.552 18.3332C143.588 19.5633 145.021 21.5623 146.679 23.1769C147.132 23.5613 147.81 23.8688 148.036 24.407C150.072 26.406 152.033 28.3281 153.993 30.3271C157.16 33.71 160.477 37.0928 163.794 40.3988C166.961 43.4742 169.977 46.6264 173.294 49.548C173.898 50.0862 174.124 50.7013 174.124 51.3932C173.822 51.547 173.747 51.7008 173.822 52.0083H173.747C173.37 52.3927 173.144 52.7771 173.144 53.3153C172.616 53.6228 172.842 54.0841 172.767 54.4686C172.314 54.853 172.465 55.3143 172.541 55.7756C172.164 56.6982 171.108 57.3133 171.259 58.4665C171.108 58.6203 171.033 58.8509 170.882 59.0816C170.882 59.0816 170.806 59.1585 170.882 59.3122C170.882 59.3891 170.806 59.466 170.806 59.466V59.3122C170.806 59.3122 170.505 59.5429 170.505 59.8504C169.902 60.5424 169.751 61.465 169.525 62.3107C169.072 62.6951 168.771 63.0795 168.921 63.6946C168.846 63.7715 168.846 63.8484 168.921 63.8484C168.62 64.3097 168.092 64.6941 168.167 65.3092C167.941 65.5398 167.866 65.7705 167.866 66.1549C167.414 66.5393 167.338 67.0775 167.263 67.6926C166.81 68.077 166.66 68.6152 166.584 69.1534C166.132 69.384 166.283 69.7684 166.283 70.1528C166.207 70.3835 166.056 70.6142 165.981 70.8448C165.906 70.9217 165.906 70.9986 165.981 70.9986C165.83 71.1523 165.755 71.3061 165.604 71.4599C165.378 71.6136 165.227 71.8443 165.302 72.2287C164.775 72.9207 164.624 73.6895 164.624 74.4583C164.548 74.6121 164.398 74.7659 164.322 74.9196C164.096 74.9965 163.945 75.2272 164.021 75.4578C164.021 75.4578 163.644 75.8422 163.644 76.1498C163.267 76.7649 163.267 77.4568 163.04 78.0719C163.04 78.0719 162.663 78.4563 162.663 78.7638C162.06 79.5327 161.91 80.3784 161.683 81.2241C161.231 81.6085 160.929 82.0698 161.08 82.608C161.005 82.6849 161.005 82.7618 161.08 82.8387C160.854 83.3 160.251 83.6075 160.402 84.2226C160.1 84.4532 160.025 84.6839 160.1 85.0683C159.572 85.4527 159.497 86.0678 159.421 86.606C159.044 87.0673 158.818 87.5286 158.743 88.0668C158.215 88.3743 158.517 88.9894 158.366 89.3738C158.064 89.912 157.763 90.4502 157.461 91.0652V91.6803C157.461 91.6803 157.16 92.0647 157.009 92.2954C156.707 92.6798 156.481 93.0642 156.481 93.6024C156.029 94.4481 155.275 94.9094 154.37 94.525C150.449 92.9104 146.378 92.526 142.231 92.3723C141.703 92.2954 141.477 92.1416 141.477 91.6803C141.477 83.4537 141.477 75.1503 141.402 66.9237C141.477 62.4645 141.477 58.0821 141.477 53.6228C141.477 48.4716 141.402 43.3204 141.402 38.1692C141.402 36.8622 141.552 35.4783 141.402 34.1713C141.175 32.1723 141.703 30.0964 141.025 28.0974V26.406ZM138.838 141.04C138.838 141.04 139.366 141.193 139.592 141.27C139.667 141.347 139.743 141.655 139.743 141.655C142.306 140.809 144.945 141.424 147.509 141.27C150.298 141.117 153.088 141.424 155.878 141.04C156.556 141.04 157.16 141.04 157.763 141.117C158.14 141.347 158.441 141.27 158.818 141.04C163.87 141.04 168.921 141.117 174.048 141.117C174.199 141.424 174.425 141.501 174.727 141.117H175.481C175.481 141.117 176.009 141.424 176.31 141.501C176.537 143.346 176.009 145.268 175.933 147.113C175.406 149.112 174.802 151.035 174.199 153.034C172.993 155.494 171.711 157.954 170.505 160.414C170.354 160.568 170.279 160.722 170.128 160.876C170.128 161.029 169.977 161.106 169.826 161.183C169.6 161.183 169.525 161.337 169.525 161.491C169.298 161.491 169.148 161.645 169.223 161.875C169.148 161.952 169.148 162.029 169.148 162.029C169.072 162.183 168.997 162.336 168.846 162.49C168.695 162.49 168.544 162.644 168.544 162.798H168.469C166.961 164.874 165.076 166.565 163.342 168.41C161.91 168.795 160.854 169.794 159.798 170.717C158.29 171.947 156.481 172.408 154.898 173.408C154.521 173.638 153.993 173.792 153.767 174.253C150.298 175.407 146.83 176.252 143.136 176.637C142.683 176.637 142.231 176.791 141.779 176.867C136.802 177.021 131.977 175.945 127.151 174.561C124.136 173.254 121.271 171.563 118.405 169.948C116.822 168.564 115.163 167.103 113.58 165.719C107.774 159.415 104.155 152.111 103.251 143.5C102.723 142.116 103.175 141.27 104.759 141.27C104.909 141.27 105.136 141.117 105.362 141.04H106.342C111.544 140.963 116.747 141.04 121.949 141.04C122.251 141.27 122.628 141.193 122.929 141.04H127.076C130.695 141.501 134.239 141.501 137.858 141.117H138.31C138.31 141.117 138.612 141.04 138.838 141.04ZM132.655 116.821C131.072 113.208 129.941 109.517 128.056 106.058C127.83 104.059 129.263 104.135 130.544 103.905C132.957 103.367 135.37 102.675 137.933 102.752V121.742C137.858 122.357 137.858 123.126 136.878 122.972C136.124 122.895 135.37 123.28 134.917 121.972C134.54 120.896 134.239 119.666 133.334 118.743C133.183 118.436 133.108 118.128 132.957 117.821C133.108 117.436 132.957 117.052 132.655 116.821ZM128.132 114.669C128.584 115.745 129.036 116.744 129.489 117.744C129.564 117.975 129.64 118.128 129.715 118.282C129.79 118.59 129.79 118.897 130.092 119.128C130.167 119.358 130.318 119.589 130.394 119.82C130.394 119.897 130.394 119.974 130.469 120.05C130.469 120.204 130.62 120.358 130.695 120.512C130.695 120.589 130.695 120.665 130.771 120.742C131.072 121.511 131.223 122.357 131.675 123.126C132.278 124.279 131.6 124.817 130.846 125.355C130.017 126.047 129.564 125.355 129.112 124.894C124.739 120.589 120.441 116.36 116.143 112.054C116.37 110.901 117.425 110.517 118.255 109.825C119.989 108.441 121.949 107.518 123.909 106.442C124.136 106.288 124.513 106.442 124.814 106.365C125.568 109.287 127.151 111.901 128.132 114.669ZM120.969 121.742C120.969 121.742 121.195 121.972 121.346 122.049C122.628 123.587 123.985 125.048 125.568 126.278C126.021 127.201 127.604 127.662 127.076 129.2C125.945 130.891 124.588 130.045 123.231 129.507C121.271 128.738 119.461 127.739 117.35 127.277C117.124 127.277 116.973 127.277 116.747 127.277C113.806 125.509 110.489 124.587 107.322 123.356C107.397 122.203 107.85 121.204 108.528 120.204C109.584 118.743 110.715 117.359 111.77 115.899C113.052 114.207 113.203 114.207 114.636 115.591C116.747 117.667 118.707 119.897 120.969 121.819V121.742ZM124.362 133.813C124.211 134.966 123.985 136.119 123.759 137.272C123.608 138.272 122.854 138.349 122.175 138.349C116.822 138.272 111.544 138.503 106.116 138.195C105.513 138.195 104.909 138.195 104.306 138.349C103.628 138.426 103.1 138.272 103.175 137.426C103.477 134.197 103.929 130.968 104.985 127.893C105.362 126.739 105.814 126.278 107.247 126.893C112.901 129.276 118.782 131.275 124.362 133.813ZM109.282 46.1651C112.6 42.7822 115.993 39.3993 119.31 36.0165C120.215 35.1707 121.195 34.325 121.874 33.2487C122.024 32.9411 122.175 32.6336 122.326 32.326C123.231 32.1723 123.834 31.5572 124.437 30.9421C126.096 29.3276 127.679 27.713 129.263 26.0985C132.052 23.3307 134.842 20.5628 137.632 17.795C138.235 18.2563 137.782 18.9483 137.933 19.4865V91.6803C136.953 92.8336 135.445 92.4491 134.314 92.6029C131.072 92.9104 128.056 93.5255 125.04 94.525C124.286 94.7557 123.683 95.0632 123.155 93.7562C120.366 87.5286 117.878 81.2241 115.239 74.9965C115.088 74.7659 114.937 74.5352 114.786 74.3046C112.298 67.7695 109.509 61.2343 106.643 54.7761C106.643 54.6992 106.568 54.5455 106.568 54.4686C106.493 54.3148 106.417 54.2379 106.342 54.0841C106.266 52.7002 105.513 51.6239 104.985 50.3937C106.417 49.0098 107.85 47.549 109.282 46.1651ZM58.0877 51.8545H100.612C100.612 51.8545 101.29 52.0083 101.441 51.547C102.874 53.9304 103.778 56.6213 104.909 59.0816C104.909 59.5429 105.362 59.8504 105.513 60.2348C107.171 65.3092 109.886 70.076 111.77 75.0734C112.524 78.1488 114.032 80.8397 115.163 83.6844C116.747 87.4517 118.33 91.219 119.913 94.9094C120.366 95.9089 120.064 96.4471 119.084 96.9084C115.239 98.523 111.846 100.906 108.755 103.674C108.302 104.135 107.85 104.443 107.397 103.751C105.286 101.675 103.326 99.4456 101.139 97.5235C100.838 97.2159 100.612 96.9084 100.386 96.6777C97.6712 94.0637 94.8815 91.3728 92.1672 88.7587C90.3577 87.4517 89.3021 85.3758 87.4172 84.1457C86.3616 82.9924 85.3815 81.8392 84.0997 80.9935C83.3458 80.4553 82.5918 79.8402 82.1394 78.9945C82.064 78.8407 81.9886 78.687 81.8378 78.5332L81.6116 78.3025C81.6116 78.3025 81.31 77.9181 81.0838 77.995C81.0084 77.4568 80.7069 77.303 80.2545 77.303C80.2545 76.7649 79.9529 76.5342 79.6513 76.2267C78.445 75.1503 77.2386 74.1508 76.0322 73.0744C74.9013 71.8443 73.6195 70.691 72.564 69.4609C71.056 67.6157 69.3973 66.0011 67.5124 64.6172C66.306 62.5414 64.2703 61.3112 62.6116 59.6967C61.3298 58.3896 60.0481 57.0826 58.7663 55.7756C57.7861 54.7761 56.8814 53.7766 55.8258 52.854C55.4488 52.5465 55.5242 52.3158 55.4488 52.0083C56.3536 51.9314 57.183 51.8545 58.0877 51.8545ZM52.7345 54.6223C54.3179 56.16 55.9012 57.6208 57.4846 59.0816C57.7107 59.3122 57.9369 59.6198 58.1631 59.8504H58.2385C58.2385 59.8504 58.7663 60.5424 59.2187 60.6961C59.4449 61.0806 59.6711 61.465 60.1235 61.6956C60.3496 62.0032 60.5758 62.3107 60.9528 62.3107C60.9528 62.5414 61.1036 62.6182 61.3298 62.6951C61.3298 63.0795 61.556 63.3102 61.933 63.3102C62.9131 64.771 64.3457 65.7705 65.552 66.9237C69.3973 71.0755 73.4687 75.0734 77.6156 78.9945C77.7664 79.0714 77.8418 79.1482 77.9172 79.2251H77.9926C77.9926 79.2251 78.1434 79.5327 78.2188 79.6096H78.2942C78.2942 79.6096 78.4449 79.8402 78.5957 79.9171H78.6711C78.6711 79.9171 79.0481 80.3784 79.2743 80.5322L79.5759 80.9166C79.8021 81.1472 80.0283 81.301 80.2545 81.4548V81.6085C80.4807 81.993 80.7823 82.3005 81.2346 82.5311H81.3854C81.3854 82.5311 81.687 82.7618 81.8378 82.9156C81.8378 83.3 82.064 83.5306 82.5164 83.5306C84.8537 86.606 87.7942 89.1431 90.6593 91.7572C91.1117 92.3723 91.6394 92.9104 92.2426 93.3717C92.3934 93.4486 92.4688 93.6024 92.5442 93.6793C92.695 93.7562 92.7704 93.9099 92.9212 93.9868C93.3736 94.4481 93.826 94.8325 94.2029 95.2938C94.3537 95.3707 94.4291 95.5245 94.5799 95.6014C94.8815 96.1396 95.2585 96.6777 95.8617 96.9084C96.1633 97.2159 96.5403 97.6003 96.8418 97.9079C96.9172 97.9848 97.068 98.1385 97.1434 98.2154C97.5204 98.7536 97.8974 99.2149 98.5006 99.5224C100.159 101.368 101.893 103.136 103.778 104.751C104.08 105.289 104.457 105.596 104.985 105.904C104.985 105.904 105.035 105.955 105.136 106.058C105.211 106.519 104.985 106.826 104.683 107.134C103.552 108.595 102.421 110.132 101.29 111.593L101.064 111.824C99.3299 114.053 97.822 116.437 96.8418 119.051C96.5403 119.205 96.2387 119.358 96.0125 119.051C94.4291 117.744 92.5442 117.359 90.6593 116.821C89.3021 115.976 87.7188 115.437 86.2109 114.899C83.0442 113.746 79.8775 112.516 76.7862 111.209C74.5243 110.363 72.4132 109.21 70.0005 108.748C65.7028 106.596 61.2544 104.904 56.7306 103.367H56.6552C56.3536 102.905 55.9012 102.752 55.4488 102.752C55.3734 102.752 55.298 102.752 55.2226 102.752C54.8457 102.675 54.5441 102.598 54.1671 102.521C54.0163 102.444 53.9409 102.367 53.7901 102.367C53.7147 102.367 53.6393 102.213 53.4885 102.213C53.2623 101.906 52.8853 101.906 52.5083 101.829C52.5083 101.829 52.433 101.675 52.3576 101.598C52.3576 101.291 52.4329 100.983 52.4329 100.599C52.4329 85.8371 52.433 71.0755 52.3576 56.2369C52.3576 55.7756 52.2068 55.1605 52.7345 54.6992V54.6223ZM19.032 136.888C28.1551 127.739 37.2781 118.59 46.3258 109.44C47.6829 108.133 49.1155 106.826 50.3218 105.366C50.925 104.751 51.302 104.827 51.9806 105.058C53.7901 105.673 55.4488 106.826 57.4092 106.98C60.2743 108.595 63.3655 109.671 66.5322 110.671C68.7941 111.824 71.2068 112.746 73.6949 113.515C73.8457 113.592 73.9965 113.746 74.0719 113.823H74.2981C80.8577 116.437 87.4172 119.051 93.9014 121.665C94.2783 121.819 94.7307 121.972 95.1077 122.126C95.1077 122.28 95.1077 122.434 95.0323 122.588C93.5244 127.354 92.2426 132.198 92.0918 137.272C92.0918 138.426 91.187 138.426 90.3577 138.426C89.6791 138.349 89.0759 138.349 88.3974 138.349H60.425C52.6591 138.349 44.8932 138.426 37.1273 138.426C34.413 138.349 31.548 137.964 28.9091 138.349C25.29 138.964 21.8217 138.118 18.2781 138.349C17.9765 137.58 18.6551 137.272 19.032 136.888ZM21.5955 150.419C20.3138 150.419 19.3336 150.112 18.3535 149.036C16.2423 146.652 13.8296 144.423 11.5677 142.116C11.4169 141.885 11.2661 141.655 11.1153 141.424C11.2661 141.424 11.4169 141.347 11.5677 141.27H12.3971C18.4289 141.501 24.536 141.27 30.6432 141.27C31.0202 141.27 31.3972 141.347 31.7741 141.347H77.4648C77.4648 141.347 77.314 141.655 77.2386 141.809C77.7664 142.27 77.691 142.962 77.9172 143.577C78.5957 145.806 78.8973 148.19 80.1037 150.266C79.5759 150.266 78.9727 150.419 78.4449 150.419H45.1948C41.2742 150.419 37.4289 150.419 33.5083 150.496C29.5122 150.419 25.5916 150.343 21.5955 150.419ZM32.7543 161.414C31.3972 161.414 30.04 161.337 29.0599 160.261C28.7583 159.799 28.5321 159.261 28.0797 158.954C27.0241 157.493 25.29 156.57 24.159 155.186C24.159 154.571 23.4805 154.264 23.4051 153.725H30.5678C41.802 153.725 53.0361 153.725 64.3457 153.649C69.6235 153.649 74.8259 153.725 80.1037 153.725C81.0084 153.649 81.5362 153.956 81.9132 154.879C82.9688 156.955 84.0997 159.03 85.4569 160.953C84.9291 161.721 84.0997 161.337 83.3458 161.337C66.5322 161.337 49.6433 161.414 32.7543 161.414ZM43.7623 175.022C43.5361 173.715 42.2543 173.331 41.5758 172.485C40.2186 170.947 38.7861 169.41 37.2027 168.103C36.2226 167.026 35.3932 165.796 34.1115 165.027C34.1869 164.874 34.2622 164.797 34.413 164.643C34.413 164.489 34.2622 164.335 34.2622 164.182L41.7266 164.105C45.9488 164.259 50.2464 164.259 54.4687 164.105C57.6353 164.182 60.8774 164.182 64.0441 164.182C71.5084 164.182 78.8973 164.182 86.3616 164.182C86.8894 164.182 87.4172 164.028 87.945 164.412C88.1712 164.489 88.322 164.566 88.5482 164.643C88.6236 164.72 88.6236 164.874 88.699 165.027C88.699 165.642 89.0005 166.027 89.6791 166.027C89.7545 166.642 89.9053 167.18 90.6593 167.334C91.1871 169.179 92.695 170.256 94.2029 171.255C94.2029 171.639 94.4291 171.947 94.8815 171.947C94.8815 172.331 95.1077 172.562 95.4847 172.562C95.7109 173.254 95.9371 173.946 96.8418 173.869V174.484C96.8418 174.484 96.7664 174.638 96.8418 174.715C92.9966 174.792 89.1513 174.869 85.3815 174.945C84.1751 174.869 82.9688 174.869 81.7624 174.869C69.0957 174.869 56.429 174.869 43.7623 174.945V175.022ZM227.505 255.596C227.505 255.596 227.43 255.673 227.505 255.75C227.203 255.904 227.203 256.135 227.505 256.365C227.43 256.365 227.43 256.442 227.505 256.519C227.279 264.054 227.203 271.588 227.203 279.123C226.676 282.352 226.148 285.504 225.545 288.733C225.168 290.271 224.715 291.886 224.338 293.423C224.263 293.731 224.263 293.961 224.263 294.269C223.735 295.73 222.981 297.037 222.83 298.651C222.529 298.959 222.529 299.42 222.604 299.805C221.699 300.804 221.398 301.957 221.021 303.188C220.568 303.572 220.267 304.033 220.418 304.571C218.759 308.646 216.572 312.414 214.461 316.181C213.104 318.41 211.144 320.256 210.239 322.793C209.334 323.1 209.184 323.946 208.656 324.561C205.791 327.713 203.001 330.943 200.136 334.172C198.251 335.402 196.517 336.939 194.858 338.4C194.783 338.477 194.632 338.4 194.556 338.477C190.56 342.168 185.81 344.858 181.211 347.626C179.251 348.011 177.668 349.164 175.933 350.163C175.707 350.163 175.481 350.163 175.33 350.163C170.957 352.624 166.056 353.469 161.457 355.161C159.949 355.699 158.29 355.622 156.783 356.314C155.727 356.084 154.747 356.545 153.767 356.622C151.731 356.852 149.695 357.314 147.659 357.621C147.056 357.467 146.227 358.006 146.001 357.006V356.622C146.001 350.548 146.001 344.397 146.001 338.246V309.031C149.243 308.492 152.56 308.416 155.727 307.647C159.195 306.724 162.739 305.878 165.755 303.803C165.755 303.726 165.83 303.649 165.83 303.572C167.489 303.264 168.921 302.572 169.902 301.112C169.977 301.112 170.052 300.958 170.128 300.881C172.39 300.035 174.124 298.498 175.104 296.191C175.179 296.268 175.255 296.191 175.33 296.114H175.481V295.96L175.632 295.807C176.16 295.807 176.16 295.345 176.009 294.884C176.084 294.884 176.16 294.884 176.235 294.884C177.366 294.115 177.894 293.116 178.045 291.732C178.12 291.809 178.195 291.732 178.271 291.732C178.723 291.347 178.798 290.655 179.025 290.194C180.533 286.273 181.06 282.275 181.513 278.123C182.041 273.049 181.739 267.898 181.664 262.747V229.148C181.739 227.149 181.739 225.15 181.739 223.152C181.739 222.844 182.041 222.075 181.136 222.536C180.457 222.536 179.703 222.613 178.949 222.613C178.723 222.152 178.346 222.306 177.969 222.306H169.072C169.072 222.306 168.318 222.075 168.092 222.613C167.791 222.844 167.715 223.075 167.715 223.305C167.715 223.613 167.866 223.92 167.866 224.228C167.791 240.297 167.791 256.365 167.791 272.357C167.791 273.972 167.64 275.586 167.489 277.201C167.414 278.738 166.886 280.199 167.187 281.737C166.358 282.275 167.64 283.275 166.81 283.813C165.981 285.427 165.302 287.119 164.925 288.887C164.85 288.964 164.85 289.041 164.85 289.118C164.85 289.118 164.699 289.348 164.624 289.425C164.473 289.733 164.322 290.04 164.247 290.348C164.021 290.502 163.87 290.655 163.719 290.809C163.644 290.809 163.568 290.886 163.568 291.04C163.342 291.04 163.191 291.271 163.267 291.578L162.211 292.731C162.06 292.731 161.91 292.885 161.91 293.039C161.457 293.27 161.156 293.654 160.854 294.038C160.175 294.5 159.421 295.038 158.743 295.422C153.917 298.113 148.79 299.19 143.362 299.343H136.199C135.521 299.19 134.917 299.113 134.239 299.036C131.6 298.651 128.961 298.113 126.473 297.344C126.171 297.344 125.945 297.191 125.719 297.114C125.191 296.96 124.663 296.806 124.136 296.576C123.909 296.268 123.759 296.114 123.457 296.037C118.556 293.731 115.163 290.194 113.806 284.966C112.751 281.045 112.374 277.124 112.298 273.126C112.223 266.206 112.298 259.21 112.223 252.29C112.298 251.445 112.374 250.522 112.223 249.676V247.062C112.374 245.986 112.374 244.91 112.223 243.756C112.223 236.837 112.298 229.917 112.298 222.998C112.298 222.844 112.147 222.69 112.072 222.613C109.132 222.613 106.191 222.69 103.251 222.69C102.572 222.69 101.893 222.613 101.215 222.613H98.6514C98.0482 222.998 98.3498 223.613 98.3498 224.074V274.125C98.3498 274.664 98.1236 275.202 98.6514 275.663C98.5006 276.509 98.6514 277.431 98.7268 278.354C99.1038 283.89 100.084 289.348 103.024 294.192C104.382 296.499 105.965 298.882 108.453 300.266C110.64 302.572 113.58 303.803 116.37 305.033C117.425 305.725 118.632 306.032 119.763 306.493C124.286 308.108 129.112 308.339 133.786 309.108C133.937 309.261 134.088 309.415 134.239 309.569V346.934C134.239 350.394 134.239 353.854 134.239 357.391C133.786 357.852 133.259 357.698 132.655 357.775C132.429 357.698 132.128 357.698 131.826 357.698C129.79 356.852 127.679 356.699 125.568 356.699C124.513 356.545 123.532 356.314 122.477 356.084C119.009 355.084 115.54 354.161 112.072 353.162H111.921C111.921 353.162 111.544 352.778 111.167 352.854C111.092 352.778 110.941 352.778 110.866 352.778C109.735 352.162 108.528 351.701 107.247 351.547C106.945 351.394 106.643 351.24 106.342 351.163C106.191 351.009 106.116 350.932 105.965 350.855C105.437 350.548 104.985 350.163 104.382 350.163C101.969 348.933 99.5561 347.78 97.2188 346.55C97.068 346.473 96.9172 346.396 96.8418 346.242H96.691C94.5799 344.858 92.5442 343.475 90.3577 342.321C87.4172 339.707 84.0997 337.631 81.2346 334.94C81.0085 334.71 80.5561 334.633 80.2545 334.479C80.1791 333.48 79.1989 333.095 78.5957 332.403C77.4648 331.25 76.2584 330.097 75.0521 328.944C74.7505 328.021 73.9965 327.483 73.3933 326.868L73.1672 326.637C73.1672 326.637 72.941 326.483 72.7902 326.329C71.8854 324.792 70.7544 323.408 69.6989 322.024C65.4013 316.412 62.0084 310.261 59.2187 303.803C58.9925 303.572 59.1433 303.034 58.6909 302.88C58.6909 302.803 58.6909 302.649 58.6155 302.496C58.6909 302.342 58.5401 302.188 58.3893 302.188C58.3139 302.188 58.3139 301.957 58.3139 301.88C57.9369 300.42 57.4846 298.959 56.7306 297.652C56.429 296.191 56.1274 294.73 55.3734 293.423V292.731C55.3734 292.731 55.298 292.27 54.9965 292.116C54.9965 291.886 54.9965 291.655 55.0718 291.424C54.8457 289.887 54.3179 288.426 54.0163 286.965C53.7901 285.504 53.7901 284.043 53.0361 282.66V281.968C53.1869 281.352 53.2623 280.814 52.8099 280.353V279.046C52.8853 278.354 52.8099 277.662 52.4329 277.124V275.74C52.4329 275.125 52.5083 274.433 52.5083 273.818C52.5083 263.054 52.4329 252.367 52.4329 241.68C52.3576 225.766 52.3576 209.928 52.2822 194.013C52.2822 193.398 52.433 192.782 52.056 192.244C52.1314 190.63 52.2822 188.938 51.9806 187.324C52.056 184.402 52.1314 181.481 52.2068 178.559C54.0163 178.559 55.9012 178.559 57.7107 178.482C61.933 178.405 66.1552 178.713 70.3775 178.328C72.7902 178.328 75.2029 178.559 77.5402 177.867C78.8973 177.944 80.1791 178.021 81.5362 177.79C82.7426 177.867 83.9489 177.867 85.2307 177.867H101.139C102.044 178.098 102.949 178.098 103.854 177.867H104.985C104.985 177.867 105.588 178.175 105.663 178.098C105.663 177.636 105.286 177.713 104.985 177.636C104.608 176.406 103.326 175.868 102.421 175.099C98.7268 171.793 95.3339 168.103 92.0164 164.412C91.941 164.259 91.8656 164.028 91.7148 163.874C86.7386 157.8 83.195 150.958 81.31 143.346C80.8577 141.501 81.0838 141.193 82.9688 141.193C85.8339 141.193 88.699 141.424 91.564 141.193C92.0918 141.578 92.2426 142.193 92.2426 142.885C92.3934 144.346 92.6196 145.806 92.7704 147.344C92.7704 147.498 92.7704 147.729 92.9212 147.959C92.9966 148.344 92.7704 148.882 93.1474 149.266C93.2228 149.497 93.2228 149.651 93.2982 149.881C93.2982 149.958 93.2982 150.035 93.2982 150.112C93.5998 151.188 93.826 152.188 94.1275 153.187C94.2029 153.495 94.1275 153.879 94.5045 154.11C95.5601 158.262 97.2188 162.106 99.7823 165.489C99.9331 165.642 100.009 165.796 100.084 165.873C101.743 169.025 104.08 171.563 106.643 174.023C107.247 174.561 107.699 175.33 108.528 175.714C109.056 176.406 109.735 176.944 110.489 177.329C110.79 177.867 111.243 178.175 111.77 178.328C112.072 178.79 112.524 179.174 113.128 179.251C113.655 179.635 114.032 180.174 114.711 180.25C114.862 180.327 115.013 180.404 115.163 180.558C115.163 180.712 115.239 180.789 115.39 180.712C115.54 180.789 115.616 180.789 115.767 180.865C116.445 181.404 117.124 182.019 118.028 182.019H118.179C118.933 182.941 119.838 183.403 120.969 183.403C125.493 185.94 130.394 187.016 135.37 187.247C140.723 187.477 146.227 187.708 151.429 186.017C153.691 185.325 156.029 185.094 157.913 183.633C158.064 183.556 158.215 183.403 158.441 183.326C161.005 181.865 163.644 180.404 166.207 178.866C166.584 178.713 166.961 178.482 167.338 178.328C167.414 178.328 167.489 178.251 167.489 178.175C168.544 177.944 169.374 177.329 169.902 176.329C170.882 175.945 171.711 175.253 172.465 174.484C176.763 170.332 180.231 165.566 182.795 160.184C185.207 155.109 186.791 149.728 187.092 144.115C187.168 141.655 187.243 141.655 189.806 141.193C190.636 141.193 191.465 141.193 192.219 141.117C193.199 141.424 194.104 141.424 195.009 141.117H197.949C199.457 141.27 199.306 142.27 199.005 143.269C198.176 145.806 197.346 148.344 196.592 150.881C195.989 152.034 195.386 153.264 194.783 154.417C193.124 157.185 191.314 159.799 189.429 162.413C187.318 165.181 184.755 167.641 182.493 170.332C182.418 170.486 182.342 170.64 182.191 170.794H182.116C181.211 171.101 180.683 172.024 179.929 172.716C178.045 174.253 176.235 175.945 174.425 177.636C174.652 178.713 175.556 178.251 176.16 178.251C182.87 178.251 189.58 178.021 196.291 178.021C206.017 178.175 215.668 178.405 225.394 178.559C225.922 178.559 226.449 178.79 226.902 178.251C227.053 178.405 227.128 178.482 227.279 178.559V200.163C227.279 200.778 227.279 201.393 227.203 202.085V203.392C227.203 214.156 227.203 224.997 227.279 235.76C227.354 239.605 227.128 243.372 227.505 247.139V255.673V255.596ZM227.882 262.824C227.882 262.824 228.033 262.747 228.108 262.824H227.882ZM235.271 174.869H205.263C203.604 174.484 201.87 174.715 200.211 174.715C195.009 174.715 189.806 174.484 184.604 174.715C184.001 174.715 183.398 174.715 182.719 174.561C183.172 173.408 184.453 172.793 184.83 171.639H184.906C184.906 171.639 185.509 171.332 185.584 170.947C185.735 170.871 185.81 170.717 185.886 170.64C185.961 170.486 186.037 170.409 186.112 170.332H186.187C188.072 169.179 189.429 167.488 190.636 165.873C191.39 164.874 191.993 164.643 193.049 164.643H245.299C245.299 164.643 245.374 164.797 245.449 164.874L235.271 174.792V174.869ZM251.707 159.184C249.446 161.798 246.58 161.721 243.565 161.645C239.946 161.568 236.326 161.645 232.707 161.645H229.164C229.164 161.645 229.013 161.568 228.862 161.645H226.525C226.525 161.645 226.374 161.645 226.223 161.721H218.457C213.406 161.568 208.43 161.568 203.378 161.721C200.739 161.721 198.1 161.645 195.461 161.645C194.33 161.645 193.953 161.337 194.707 160.337C195.914 158.8 196.818 157.108 197.648 155.34C198.176 154.264 198.93 154.033 200.06 154.033H220.87C232.783 153.956 244.696 153.956 256.533 153.879C255.251 155.955 253.291 157.416 251.707 159.184ZM267.239 143.731C265.204 145.653 263.243 147.652 261.283 149.651C260.529 150.419 259.7 150.496 258.719 150.496H232.029C232.029 150.496 231.576 150.496 231.35 150.573C230.747 150.496 230.069 150.496 229.465 150.496H200.136C199.985 149.574 201.041 149.266 201.116 148.497C201.116 146.114 202.322 144.038 203.152 141.962H267.993C267.993 141.962 268.069 142.424 268.069 142.654C267.993 143.192 267.616 143.423 267.239 143.731ZM237.684 241.834V247.062H237.759C237.684 245.294 237.684 243.603 237.684 241.834ZM213.18 336.171H213.255C213.255 336.171 213.18 336.017 213.18 336.171Z" fill="white"/>
<path d="M175.255 197.78C175.255 197.165 174.878 197.088 174.425 197.165H148.036C144.719 197.088 141.326 197.088 137.933 197.088H105.211C104.08 197.088 103.703 197.395 103.778 198.549C103.854 200.701 104.005 202.777 103.854 204.93C103.778 206.468 104.155 206.929 105.814 206.929C115.088 206.852 124.362 206.929 133.636 206.929C133.711 216.77 133.711 226.688 133.711 236.529C133.711 236.914 133.636 237.221 133.636 237.529V280.507C133.636 281.045 133.711 281.506 133.786 281.968C134.314 282.275 134.842 282.121 135.37 282.121C138.159 282.121 140.874 281.968 143.663 282.198C145.171 282.352 145.624 281.968 145.624 280.507C145.624 260.517 145.624 240.527 145.624 220.537C145.624 216.001 145.473 211.388 145.85 206.852C155.199 206.852 164.624 206.852 174.048 206.929C174.35 206.929 174.727 206.929 175.029 206.852C175.481 206.698 175.104 206.391 175.104 206.16C175.556 203.392 175.179 200.548 175.33 197.78H175.255Z" fill="white"/>
<path d="M175.255 197.78C175.104 200.548 175.481 203.392 175.029 206.16C175.029 206.391 175.406 206.698 174.953 206.852C174.652 206.929 174.275 206.929 173.973 206.929C164.548 206.852 155.124 206.852 145.775 206.852C145.398 211.388 145.548 216.001 145.548 220.537C145.548 240.527 145.548 260.517 145.548 280.507C145.548 281.968 145.096 282.352 143.588 282.198C140.798 281.968 138.084 282.121 135.294 282.121C134.767 282.121 134.239 282.275 133.711 281.968C133.636 281.506 133.56 281.045 133.56 280.507V237.529C133.56 237.529 133.636 236.914 133.636 236.529C133.636 226.688 133.636 216.77 133.56 206.929C124.286 206.929 115.013 206.852 105.739 206.929C104.08 206.929 103.703 206.468 103.778 204.93C103.929 202.777 103.778 200.701 103.703 198.549C103.628 197.395 104.005 197.088 105.136 197.088H137.858C141.251 197.088 144.644 197.088 147.961 197.165H174.35C174.802 197.088 175.179 197.165 175.179 197.78H175.255Z" fill="white"/>
</svg>
